<svg xmlns="http://www.w3.org/2000/svg" style="position:absolute; width:0; height:0;">
    <symbol id="symbol-heart" viewBox="0 0 24 24">
        <path
            d="M12 21.35l-1.45-1.32C5.4 15.36 2 12.28 2 8.5 2 5.42 4.42 3 7.5 3c1.74 0 3.41.81 4.5 2.09C13.09 3.81 14.76 3 16.5 3 19.58 3 22 5.42 22 8.5c0 3.78-3.4 6.86-8.55 11.54L12 21.35z"/>
    </symbol>

    <symbol id="symbol-flat_style" viewBox="0 0 21 30">
        <path
            d="M20.47 29l-3.031-9.824c.097-.05.238-.154.424-.31.317-.365.471-.754.463-1.167V16h-4.942c-1.279 0-1.4-1.218-1.4-1.542V0h-11v16.595c0 .937.61 2.252 1.947 2.669L0 29.081h2l2.93-9.69h3.226L11 29h2.01l-2.893-9.608h5.436L18.5 29h1.97z"/>
        <path fill="none" d="M-6-2h32v32H-6z"/>
    </symbol>

    <symbol id="symbol-flat_height" viewBox="0 0 28 24">
        <path fill="none" d="M-2-4h32v32H-2z"/>
        <path d="M28 2V0h-6v2h2v20h-2v1.806h6V22h-2V2zM0 24h19V0H0z"/>
        <path fill="none" d="M6 6h10v16H6z"/>
        <path d="M11 13h3v3h-3z"/>
    </symbol>

    <symbol id="symbol-flat_type" viewBox="0 0 28 24">
        <path fill="none" d="M-2-4h32v32H-2z"/>
        <path
            d="M14 5.333V0H.667v24h26.666V5.333H14zm-8 16H3.333v-2.666H6v2.666zM6 16H3.333v-2.667H6V16zm0-5.333H3.333V8H6v2.667zm0-5.334H3.333V2.667H6v2.666zm5.333 16H8.667v-2.666h2.666v2.666zm0-5.333H8.667v-2.667h2.666V16zm0-5.333H8.667V8h2.666v2.667zm0-5.334H8.667V2.667h2.666v2.666zm13.334 16H14v-2.666h2.667V16H14v-2.667h2.667v-2.666H14V8h10.667v13.333zM22 10.667h-2.667v2.666H22v-2.666zM22 16h-2.667v2.667H22V16z"/>
    </symbol>

    <symbol id="symbol-flat_area" viewBox="0 0 24 24">
        <path fill="none" d="M-4-4h32v32H-4z"/>
        <path d="M0 16h8v8H0zM16 16h8v8h-8zM8 8h8v8H8zM0 0h8v8H0zM16 0h8v8h-8z"/>
    </symbol>

    <symbol id="symbol-flat_rooms" viewBox="0 0 24 24">
        <path fill="none" d="M-4-4h32v32H-4z"/>
        <path
            d="M0 0h24v24H0V0zm22.04 11.98l-3.019.014-.014-1.976 3.02-.014.014-8H9.003l.004 8h6.011l-.004 1.99H9.003v3.02H6.999V2.004H2.004V22.04h4.995v-3.02h2.004v3.02H22.04V11.98z"/>
    </symbol>

    <symbol id="symbol-location" viewBox="0 0 24 24">
        <path
            d="M12 2C8.13 2 5 5.13 5 9c0 5.25 7 13 7 13s7-7.75 7-13c0-3.87-3.13-7-7-7zm0 9.5a2.5 2.5 0 0 1 0-5 2.5 2.5 0 0 1 0 5z"/>
        <path fill="none" d="M0 0h24v24H0z"/>
    </symbol>

    <symbol id="symbol-comments" viewBox="0 0 24 24">
        <path fill="none" d="M0 0h24v24H0z"/>
        <path
            d="M21 6h-2v9H6v2c0 .55.45 1 1 1h11l4 4V7c0-.55-.45-1-1-1zm-4 6V3c0-.55-.45-1-1-1H3c-.55 0-1 .45-1 1v14l4-4h10c.55 0 1-.45 1-1z"/>
    </symbol>

    <symbol id="symbol-views" viewBox="0 0 24 24">
        <path fill="none" d="M0 0h24v24H0z"/>
        <path
            d="M12 4.5C7 4.5 2.73 7.61 1 12c1.73 4.39 6 7.5 11 7.5s9.27-3.11 11-7.5c-1.73-4.39-6-7.5-11-7.5zM12 17c-2.76 0-5-2.24-5-5s2.24-5 5-5 5 2.24 5 5-2.24 5-5 5zm0-8c-1.66 0-3 1.34-3 3s1.34 3 3 3 3-1.34 3-3-1.34-3-3-3z"/>
    </symbol>

    <symbol id="symbol-calendar" viewBox="0 0 24 24">
        <path
            d="M9 11H7v2h2v-2zm4 0h-2v2h2v-2zm4 0h-2v2h2v-2zm2-7h-1V2h-2v2H8V2H6v2H5c-1.11 0-1.99.9-1.99 2L3 20a2 2 0 0 0 2 2h14c1.1 0 2-.9 2-2V6c0-1.1-.9-2-2-2zm0 16H5V9h14v11z"/>
        <path fill="none" d="M0 0h24v24H0z"/>
    </symbol>


    <symbol id="symbol-rouble-in-circles" viewBox="1120 626 83 83">
        <path
            d="M1120 667.5a41.525 41.525 0 0 1 41.5-41.5 41.525 41.525 0 0 1 41.5 41.5 41.525 41.525 0 0 1-41.5 41.5 41.526 41.526 0 0 1-41.5-41.5zm3 0a38.582 38.582 0 0 0 38.5 38.5 38.581 38.581 0 0 0 38.5-38.5 38.581 38.581 0 0 0-38.5-38.5 38.581 38.581 0 0 0-38.5 38.5zm3 0a35.508 35.508 0 0 1 35.5-35.5 35.508 35.508 0 0 1 35.5 35.5 35.507 35.507 0 0 1-35.5 35.5 35.507 35.507 0 0 1-35.5-35.5zm3 0a32.563 32.563 0 0 0 32.5 32.5 32.426 32.426 0 0 0 23.961-10.581.752.752 0 0 1-.161-.119l-10.7-8.6a1.551 1.551 0 0 1-.2-2.1 1.551 1.551 0 0 1 2.1-.2l10.7 8.6a1.324 1.324 0 0 1 .155.153 32.662 32.662 0 0 0 2.658-4.085l-5.413-4.369a1.549 1.549 0 0 1-.2-2.1 1.549 1.549 0 0 1 2.1-.2l4.857 3.92A32.266 32.266 0 0 0 1194 667.5a32.563 32.563 0 0 0-32.5-32.5 32.487 32.487 0 0 0-26.078 13.141l9.778 7.858a1.549 1.549 0 0 1 .2 2.1 2.074 2.074 0 0 1-1.2.5 1.4 1.4 0 0 1-.9-.3l-9.554-7.679a32.417 32.417 0 0 0-2.368 4.689 1.292 1.292 0 0 1 .122.09l5.7 4.6a1.549 1.549 0 0 1 .2 2.1 2.078 2.078 0 0 1-1.2.5 1.4 1.4 0 0 1-.9-.3l-4.968-4.009a32.332 32.332 0 0 0-1.332 9.21zm23.3 17.4v-6h-4.8v-2.8h4.8v-24.2h12.1c8.1 0 13.1 3.9 13.1 10.7 0 6.9-5 10.7-13.2 10.7h-8.7v2.8h10.4v2.8h-10.3v6zm3.4-14.4h8.7c6.3 0 9.7-2.8 9.7-7.8s-3.5-7.8-9.7-7.8h-8.7z"/>
    </symbol>

    <symbol id="symbol-snow" viewBox="1022.659 511 79.115 82">
        <path
            d="M1060.76 591.5v-10.9l-9.5 9.5a1.172 1.172 0 0 1-1 .4 1.492 1.492 0 0 1-1.1-.4 1.483 1.483 0 0 1-.449-1.05 1.483 1.483 0 0 1 .449-1.05l11-11a1.54 1.54 0 0 1 .6-.376v-12.212a12.5 12.5 0 0 1-8.5-4.908l-10.578 6.108a1.515 1.515 0 0 1-.026.708l-4.027 15.026a1.355 1.355 0 0 1-1.349 1.022 1.7 1.7 0 0 0-.229.024.842.842 0 0 1-.141.015l-.1-.013a1.483 1.483 0 0 1-.914-.683 1.485 1.485 0 0 1-.136-1.135l3.478-12.978-9.44 5.45a1.463 1.463 0 0 1-.706.176 1.431 1.431 0 0 1-1.343-.724 1.542 1.542 0 0 1 .549-2.05l9.44-5.45-12.84-3.441a1.482 1.482 0 0 1-.915-.685 1.483 1.483 0 0 1-.135-1.134 1.436 1.436 0 0 1 1.407-1.105 1.58 1.58 0 0 1 .411.055l15.026 4.027a1.529 1.529 0 0 1 .544.264l10.522-6.075a12.449 12.449 0 0 1-1-4.906 12.451 12.451 0 0 1 1-4.907l-10.576-6.107a1.531 1.531 0 0 1-.626.332l-15.026 4.026a.1.1 0 0 1-.1.05.824.824 0 0 1-.1-.01c-.045-.005-.1-.013-.164-.017a1.5 1.5 0 0 1-1.459-1.073 1.482 1.482 0 0 1 .136-1.134 1.48 1.48 0 0 1 .914-.685l12.977-3.478-9.44-5.45a1.509 1.509 0 0 1-.685-.915 1.506 1.506 0 0 1 .136-1.135 1.542 1.542 0 0 1 1.325-.738 1.448 1.448 0 0 1 .724.19l9.353 5.4-3.44-12.841a1.485 1.485 0 0 1 .134-1.133 1.489 1.489 0 0 1 .915-.685 1.6 1.6 0 0 1 .414-.056 1.436 1.436 0 0 1 1.4 1.105l4.026 15.026a1.528 1.528 0 0 1 .043.6l10.611 6.127a12.5 12.5 0 0 1 8.5-4.908v-12.15a1.309 1.309 0 0 1-.6-.339l-11-11a1.482 1.482 0 0 1-.45-1.05 1.48 1.48 0 0 1 .45-1.049 1.483 1.483 0 0 1 1.049-.45 1.485 1.485 0 0 1 1.05.45l9.5 9.5v-11a1.539 1.539 0 0 1 1.5-1.5 1.54 1.54 0 0 1 1.5 1.5v10.9l9.4-9.4a1.487 1.487 0 0 1 1.05-.45 1.485 1.485 0 0 1 1.05.45 1.452 1.452 0 0 1 0 2.1l-11 11a.864.864 0 0 1-.5.338v12.152a12.5 12.5 0 0 1 8.5 4.907l10.61-6.126a1.559 1.559 0 0 1 .044-.6l4.027-15.026a1.435 1.435 0 0 1 1.406-1.106 1.6 1.6 0 0 1 .413.056 1.488 1.488 0 0 1 .914.685 1.491 1.491 0 0 1 .136 1.134l-3.442 12.84 9.354-5.4a1.447 1.447 0 0 1 .724-.19 1.543 1.543 0 0 1 1.326.74 1.539 1.539 0 0 1-.55 2.048l-9.526 5.5 12.977 3.478a1.484 1.484 0 0 1 .916.685 1.482 1.482 0 0 1 .134 1.134 1.354 1.354 0 0 1-1.348 1.022 1.731 1.731 0 0 0-.23.024.832.832 0 0 1-.14.015l-15.125-4.039a1.539 1.539 0 0 1-.626-.331l-10.489 6.056a12.45 12.45 0 0 1 1 4.907 12.449 12.449 0 0 1-1 4.907l10.521 6.074a1.591 1.591 0 0 1 .544-.264l15.026-4.026a1.634 1.634 0 0 1 .413-.055 1.435 1.435 0 0 1 1.406 1.106 1.48 1.48 0 0 1-.136 1.134 1.479 1.479 0 0 1-.914.683L1087.778 565l9.44 5.45a1.5 1.5 0 0 1 .684.915 1.5 1.5 0 0 1-.135 1.133 1.433 1.433 0 0 1-1.344.726 1.862 1.862 0 0 1-.706-.176l-9.527-5.5 3.479 12.979a1.453 1.453 0 0 1-1.05 1.818.093.093 0 0 1-.094.049.809.809 0 0 1-.1-.009 2.88 2.88 0 0 0-.165-.018 1.494 1.494 0 0 1-1.459-1.073l-4.027-15.026a1.527 1.527 0 0 1-.026-.708l-10.492-6.057a12.5 12.5 0 0 1-8.5 4.907v12.25a1.563 1.563 0 0 1 .5.338l11 11a1.455 1.455 0 0 1 0 2.1 1.172 1.172 0 0 1-1 .4 1.5 1.5 0 0 1-1.1-.4l-9.4-9.4v10.8a1.466 1.466 0 0 1-1.5 1.5 1.539 1.539 0 0 1-1.496-1.498zm-8-39.5a9.561 9.561 0 0 0 9.5 9.5 9.561 9.561 0 0 0 9.5-9.5 9.561 9.561 0 0 0-9.5-9.5 9.561 9.561 0 0 0-9.5 9.5z"/>
    </symbol>

    <symbol id="symbol-orbit" viewBox="1085 528.001 83 83">
        <path
            d="M1085 569.501a41.242 41.242 0 0 1 6.447-22.21 7 7 0 0 1-1.447-4.29 6.957 6.957 0 0 1 7-7 7.022 7.022 0 0 1 3.677 1.024 41.479 41.479 0 0 1 25.823-9.024 41.547 41.547 0 0 1 41.5 41.5 41.075 41.075 0 0 1-11.891 29.051A7.032 7.032 0 0 1 1157 602a6.957 6.957 0 0 1-7 7 6.976 6.976 0 0 1-5.181-2.266 41.516 41.516 0 0 1-18.319 4.267 41.547 41.547 0 0 1-41.5-41.5zm3 0a38.544 38.544 0 0 0 38.5 38.5 38.534 38.534 0 0 0 16.822-3.874 7.107 7.107 0 0 1-.322-2.128 6.957 6.957 0 0 1 7-7 7 7 0 0 1 4.107 1.31A38.115 38.115 0 0 0 1165 569.501a38.346 38.346 0 0 0-9.722-25.549l-6.966 7.224a28.373 28.373 0 0 1 6.688 18.325 28.533 28.533 0 0 1-28.5 28.5 28.635 28.635 0 0 1-27.516-21.072 6.95 6.95 0 0 1-5.984-6.928 6.95 6.95 0 0 1 5.721-6.887 28.418 28.418 0 0 1 27.779-22.113 28.4 28.4 0 0 1 19.782 8l6.938-7.195a38.374 38.374 0 0 0-26.72-10.805 38.473 38.473 0 0 0-23.636 8.147 7.018 7.018 0 0 1 1.136 3.853 6.958 6.958 0 0 1-7 7 7.041 7.041 0 0 1-3.209-.764 38.2 38.2 0 0 0-5.791 20.264zm58 32.5a4.012 4.012 0 0 0 4 4 4.012 4.012 0 0 0 4-4 4.012 4.012 0 0 0-4-4 4.012 4.012 0 0 0-4 4zm-44.223-38.777a6.95 6.95 0 0 1 5.224 6.778 6.95 6.95 0 0 1-4.971 6.707 25.353 25.353 0 0 0 24.47 18.292 25.53 25.53 0 0 0 25.5-25.5 25.382 25.382 0 0 0-5.782-16.152l-7.283 7.553a14.946 14.946 0 0 1 3.064 9.1 14.979 14.979 0 0 1-15 15 14.979 14.979 0 0 1-15-15 14.979 14.979 0 0 1 15-15 14.95 14.95 0 0 1 9.907 3.726l7.295-7.565a25.416 25.416 0 0 0-17.701-7.162 25.511 25.511 0 0 0-24.724 19.222zm13.224 6.777a12.035 12.035 0 0 0 12 12 12.035 12.035 0 0 0 12-12 11.914 11.914 0 0 0-2.192-6.893l-7.708 7.993a2.1 2.1 0 0 1-1.1.4 1.161 1.161 0 0 1-1-.4 1.452 1.452 0 0 1 0-2.1l7.806-8.1a11.942 11.942 0 0 0-7.806-2.9 12.035 12.035 0 0 0-12.001 12zm-19 0a4.012 4.012 0 0 0 4 4 4.012 4.012 0 0 0 4-4 4.012 4.012 0 0 0-4-4 4.012 4.012 0 0 0-4.001 4zm-3-27a4.012 4.012 0 0 0 4 4 4.012 4.012 0 0 0 4-4 4.012 4.012 0 0 0-4-4 4.012 4.012 0 0 0-4.001 4z"/>
    </symbol>

    <symbol id="symbol-infographics-1" viewBox="1006 906 100 100">
        <path
            d="M1054.75 1006a50.016 50.016 0 0 1 0-100v22.9a27.792 27.792 0 0 0 0 55.456zm2.5-100a50.016 50.016 0 0 1 0 100v-21.591a27.791 27.791 0 0 0 0-55.567V906z"/>
    </symbol>

    <symbol id="symbol-infographics-2" viewBox="1047 970 100 100">
        <path
            d="M1095.688 1016.904c9.666 0 13.459 4.024 13.459 9.759 0 5.6-3.977 10.083-12.256 10.083-4.579 0-9.111-1.48-11.886-3.931l2.127-3.654a14.544 14.544 0 0 0 9.713 3.469c4.9 0 7.677-2.266 7.677-5.781 0-3.654-2.312-5.92-9.805-5.92h-7.358l1.711-16.928h18.269v4.024h-14.384l-.879 8.88z"/>
        <path
            d="M1097 1070a50 50 0 1 1 50-50 50 50 0 0 1-50 50zm0-3.75a46.25 46.25 0 1 0-46.25-46.25 46.25 46.25 0 0 0 46.25 46.25z"/>
    </symbol>

    <symbol id="symbol-infographics-3" viewBox="0 0 100 100">
        <path
            d="M-1030.5-933.5h11.9v32.4h-4.6v-28.4h-7.3v-4zm18.1 0h24.4v3.1l-13.1 29.2h-4.9l12.8-28.4h-14.8v5.8h-4.4v-9.7z"
            transform="translate(1059 967)"/>
        <path
            d="M-977-867h-64c-9.9 0-18-8.1-18-18v-64c0-9.9 8.1-18 18-18h64c9.9 0 18 8.1 18 18v64c0 9.9-8.1 18-18 18zm-64-96c-7.7 0-14 6.3-14 14v64c0 7.7 6.3 14 14 14h64c7.7 0 14-6.3 14-14v-64c0-7.7-6.3-14-14-14h-64z"
            transform="translate(1059 967)"/>
    </symbol>

    <symbol id="symbol-cloud" viewBox="1176 359 18 12">
        <path
            d="M1180.5 371a4.5 4.5 0 0 1-4.5-4.5 4.5 4.5 0 0 1 4.013-4.47A5.62 5.62 0 0 1 1185 359a5.616 5.616 0 0 1 5.513 4.53 3.731 3.731 0 0 1 3.487 3.72 3.751 3.751 0 0 1-3.749 3.75zm4.5-1.5l3.75-3.749h-2.25v-3h-3v3h-2.25z"/>
    </symbol>

    <symbol id="symbol-circle-exclamation" viewBox="1367 223 30 30">
        <path
            d="M1380.5 242.5h3v3h-3zm0-12h3v9h-3zm1.485-7.5A15 15 0 1 0 1397 238a14.993 14.993 0 0 0-15.015-15zm.015 27a12 12 0 1 1 12-12 12 12 0 0 1-12 12z"/>
    </symbol>

    <symbol id="symbol-circle-check" viewBox="1357 240 30 30">
        <path
            d="M1378.885 248.37l-9.885 9.885-5.385-5.37L1361.5 255l7.5 7.5 12-12zM1372 240a15 15 0 1 0 15 15 15.005 15.005 0 0 0-15-15zm0 27a12 12 0 1 1 12-12 12 12 0 0 1-12 12z"/>
    </symbol>

    <symbol id="symbol-arrow-prev" viewBox="0 0 24 24">
        <path d="M20 11H7.83l5.59-5.59L12 4l-8 8 8 8 1.41-1.41L7.83 13H20v-2z"/>
    </symbol>

    <symbol id="symbol-arrow-next" viewBox="0 0 24 24">
        <path d="M12 4l-1.41 1.41L16.17 11H4v2h12.17l-5.58 5.59L12 20l8-8z"/>
    </symbol>


    <symbol id="social-in" viewBox="0 0 33 32">
        <path
            d="M16.555 19.07a3.186 3.186 0 0 0 3.182-3.181 3.17 3.17 0 0 0-.602-1.854 3.177 3.177 0 0 0-2.578-1.327 3.18 3.18 0 0 0-2.58 1.326 3.166 3.166 0 0 0-.602 1.854 3.183 3.183 0 0 0 3.18 3.181zm6.946-7.073V8.934l-.4.002-2.664.008.01 3.064z"/>
        <path
            d="M16.555 0C7.795 0 .667 7.128.667 15.889c0 8.76 7.127 15.888 15.888 15.888 8.76 0 15.889-7.128 15.889-15.888C32.444 7.128 25.317 0 16.555 0zm9.036 14.035v7.398a3.496 3.496 0 0 1-3.492 3.493H11.012a3.496 3.496 0 0 1-3.493-3.493V10.346a3.496 3.496 0 0 1 3.493-3.493h11.086a3.496 3.496 0 0 1 3.493 3.493v3.689z"/>
        <path
            d="M21.498 15.889a4.949 4.949 0 0 1-4.943 4.942 4.948 4.948 0 0 1-4.942-4.942c0-.656.13-1.282.364-1.854H9.279v7.398c0 .956.776 1.73 1.732 1.73h11.087c.954 0 1.732-.774 1.732-1.73v-7.398h-2.7a4.85 4.85 0 0 1 .368 1.854z"/>
    </symbol>

    <symbol id="social-vk" viewBox="0 0 1000 1000">
        <path
            d="M500 10C229.4 10 10 229.4 10 500s219.4 490 490 490 490-219.4 490-490S770.6 10 500 10zm188.4 552.8s43.3 42.8 54 62.6c.3.4.5.8.6 1 4.3 7.3 5.4 13 3.2 17.2-3.6 7-15.8 10.5-20 10.8h-76.6c-5.3 0-16.4-1.4-29.9-10.7-10.4-7.2-20.6-19.1-30.5-30.7-14.9-17.3-27.7-32.2-40.7-32.2-1.6 0-3.3.3-4.8.8-9.8 3.2-22.4 17.1-22.4 54.4 0 11.6-9.2 18.3-15.7 18.3h-35.1c-11.9 0-74.2-4.2-129.3-62.3-67.5-71.2-128.2-214-128.7-215.3-3.8-9.2 4.1-14.2 12.7-14.2h77.3c10.3 0 13.7 6.3 16 11.8 2.8 6.5 12.9 32.3 29.5 61.3 26.9 47.3 43.4 66.5 56.6 66.5 2.5 0 4.8-.7 7.1-1.8 17.3-9.6 14-71.1 13.3-83.9 0-2.4-.1-27.5-8.9-39.6-6.3-8.7-17.1-12-23.6-13.3 1.7-2.5 5.5-6.3 10.2-8.6 11.8-5.9 33.2-6.8 54.4-6.8h11.8c23 .3 28.9 1.8 37.2 3.9 16.8 4 17.2 14.9 15.7 52.1-.5 10.6-.9 22.5-.9 36.6 0 3.1-.2 6.3-.2 9.8-.5 18.9-1.1 40.4 12.3 49.3 1.7 1.1 3.7 1.7 5.8 1.7 4.6 0 18.6 0 56.5-65 16.6-28.7 29.5-62.5 30.4-65 .8-1.3 3-5.4 5.7-7 2.1-1.2 4.9-1.5 6.3-1.5h90.9c9.9 0 16.7 1.5 18 5.3 2.2 6.1-.4 24.6-41.9 80.8-7 9.3-13.2 17.4-18.5 24.4-37.7 49.4-37.7 51.9 2.2 89.3z"/>
    </symbol>

    <symbol id="social-fb" viewBox="0 0 33 32">
        <path
            d="M16.222 0C7.461 0 .333 7.128.333 15.889c0 8.76 7.128 15.888 15.889 15.888 8.76 0 15.889-7.128 15.889-15.888C32.11 7.128 24.984 0 16.222 0zm3.951 16.448h-2.585v9.213h-3.83v-9.213h-1.82v-3.256h1.82v-2.107c0-1.508.717-3.865 3.866-3.865l2.838.01v3.162h-2.06c-.336 0-.812.167-.812.887v1.913h2.918l-.335 3.256z"/>
    </symbol>

    <symbol id="social-pi" viewBox="0 0 999.9 999.9">
        <path
            d="M0 500c2.6-141.9 52.7-260.4 150.4-355.4S364.6 1.3 500 0c145.8 2.6 265.3 52.4 358.4 149.4 93.1 97 140.3 213.9 141.6 350.6-2.6 140.6-52.7 258.8-150.4 354.5-97.7 95.6-214.2 144.1-349.6 145.4-46.9 0-93.7-7.2-140.6-21.5 9.1-14.3 18.2-30.6 27.3-48.8 10.4-22.1 23.4-63.8 39.1-125 3.9-16.9 9.8-39.7 17.6-68.4 9.1 15.6 24.7 29.9 46.9 43 58.6 27.3 120.4 24.7 185.5-7.8 67.7-39.1 114.6-99.6 140.6-181.6 23.4-85.9 20.5-165.7-8.8-239.2C778.3 277 725.9 224 650.4 191.4c-95-27.3-187.5-24.4-277.3 8.8s-152.3 90.2-187.5 170.9C176.5 401 171 430.7 169 460c-2 29.3-1 57.9 2.9 85.9s13.7 53.1 29.3 75.2 36.5 39.1 62.5 50.8c6.5 2.6 11.7 2.6 15.6 0 5.2-2.6 10.4-13 15.6-31.2 5.2-18.2 7.2-30.6 5.9-37.1-1.3-2.6-3.9-7.2-7.8-13.7-27.3-44.3-36.5-90.8-27.3-139.6 9.1-48.8 29.3-90.2 60.5-124 48.2-43 104.5-66.4 168.9-70.3 64.4-3.9 119.5 13.7 165 52.7 24.7 28.6 40.7 63.1 47.8 103.5s7.2 79.1 0 116.2c-7.2 37.1-19.9 71.9-38.1 104.5-32.6 50.8-71 76.8-115.2 78.1-26-1.3-47.2-11.4-63.5-30.3s-21.2-40.7-14.6-65.4c2.6-14.3 10.4-42.3 23.4-84 13-41.7 20.2-72.9 21.5-93.7-3.9-49.5-26.7-74.9-68.4-76.2-32.6 3.9-56.6 18.6-72.3 43.9s-24.1 54.4-25.4 86.9c3.9 37.8 9.8 63.8 17.6 78.1-14.3 58.6-25.4 105.5-33.2 140.6-2.6 9.1-9.8 37.1-21.5 84s-18.2 82.7-19.5 107.4V957C206.3 914 133.3 851.9 80 770.5 26.7 689.1 0 598.9 0 500z"/>
    </symbol>

    <symbol id="social-you" viewBox="0 0 1000 1000">
        <path
            d="M448.21 12.46C274.84 29.82 118.62 145.11 49.83 306.26c-80.36 188.37-36.86 404.59 110.15 546.67 75.43 72.86 164.79 116.36 273.23 133.29 31.93 4.93 102.22 4.93 135.01 0 108.01-16.29 203.15-64.07 278.58-139.51 38.57-38.36 68.15-79.5 92.79-128.79 22.72-45.64 38.57-96.43 46.72-149.79 4.93-32.79 4.93-103.08 0-135.01-10.71-68.79-31.29-127.93-63.22-181.51C832.66 99.89 671.29 8.38 496.64 10.1c-16.08.22-37.72 1.29-48.43 2.36zm-79.94 231.01c5.57 20.57 10.71 39.86 11.36 42.86 1.93 7.71 3.21 4.29 15-41.36l10.29-40.07h18.86c10.5 0 19.07.21 19.07.64 0 .21-9.64 29.36-21.43 64.72l-21.43 64.29v88.93h-36.43v-86.79l-21.43-64.29c-11.79-35.36-21.43-64.93-21.43-66 0-.86 8.36-1.29 18.64-1.07l18.64.64 10.29 37.5zm146.37 19.07c10.5 4.71 19.5 14.79 22.5 25.5 1.71 5.14 2.14 25.72 1.71 58.29l-.64 50.36-5.79 10.07c-8.14 13.71-21 19.93-41.36 19.71-22.29-.21-35.57-7.93-42.86-25.07-4.93-11.79-4.71-110.15.21-120.86 4.07-8.14 14.57-17.14 23.79-19.93 10.93-3.21 33.22-2.35 42.44 1.93zm82.5 64.29c0 53.36.43 64.5 3.21 66.65 3.64 3 9.43 1.5 16.93-4.5l5.57-4.29V262.76h34.29v160.72h-34.28V408.7l-10.71 7.29c-18.22 12.22-34.72 12.43-43.72.43-4.29-5.79-4.5-8.79-5.14-79.93l-.64-73.72h34.5v64.06zm44.57 161.8c60 6.21 78.43 12 86.15 27 10.71 21 16.93 69.43 16.93 131.79 0 64.93-6.43 113.58-18 133.29-6.22 10.29-17.36 15.43-42.86 19.71-73.72 12.64-254.58 14.36-344.8 3.21-37.29-4.5-52.5-8.79-60.43-16.93-15.21-15-23.14-62.15-23.14-139.29 0-73.5 7.5-121.51 21.43-138.01 10.71-12.84 41.57-18.2 138-24.63 31.93-2.14 195.86.86 226.72 3.86z"/>
        <path
            d="M482.71 289.76c-3 2.79-3.43 10.71-3.43 53.14 0 35.79.64 50.36 2.57 52.29 3.86 3.86 15.64 3 19.5-1.29 3.21-3.43 3.64-10.29 3.64-52.5 0-47.57 0-48.43-4.72-51.65-6.21-4.27-13.28-4.27-17.56.01zM303.56 561.7v13.93h32.14v167.16h32.14V575.63h32.14v-27.86h-96.44v13.93zm214.29 83.58v97.5h13.93c13.71 0 13.93 0 13.93-6 0-3.21.86-4.71 1.71-3.43 3.21 5.14 16.93 11.57 24.43 11.57 10.71 0 17.36-3.43 22.29-11.36 3.64-6.22 4.07-11.36 4.07-60.43 0-47.57-.43-54.43-3.86-61.5-7.72-15.21-26.36-18.43-41.36-7.07l-7.28 5.57v-62.36h-27.86v97.51zm47.36-22.72c5.14 4.07 5.14 4.5 5.14 49.08 0 47.79-.86 51.86-10.5 51.86-2.57 0-6.86-1.5-9.43-3.43-4.71-3.21-4.71-4.07-4.71-49.07s0-45.86 4.71-49.08c6.22-4.5 8.79-4.29 14.79.64zm78.43-25.07c-11.14 3-24 15.64-27 26.36-3 11.14-3 83.15 0 94.29 5.14 18.21 19.07 28.71 38.36 28.93 27 0 42.86-15.86 42.86-43.5v-7.93h-13.93c-13.29 0-13.93.21-13.93 5.14 0 16.93-6.43 24.86-18 21.86-6.86-1.71-9.86-11.57-9.86-33v-15.43h55.72v-23.14c-.21-31.07-4.93-43.29-19.5-50.79-7.93-4.08-25.07-5.58-34.72-2.79zm22.29 26.57c1.5 1.93 3.21 9 3.64 16.07l.86 12.64h-28.72l.86-12.64c1.07-15 4.07-19.5 13.5-19.5 3.86 0 8.14 1.5 9.86 3.43zm-250.51 43.93l.64 68.79 5.14 4.07c9.22 7.5 24.22 4.93 37.07-6.43 8.36-7.29 10.29-6.86 10.29 2.36 0 6 .21 6 12.86 6h12.86V599.2h-25.72v108.44l-5.79 5.57c-7.29 6.64-13.5 8.79-17.79 6-2.79-1.71-3.21-11.36-3.86-61.07l-.64-58.93h-25.72l.66 68.78z"/>
    </symbol>

    <symbol id="social-zen" viewBox="0 0 454 454">
        <circle cx="227" cy="227" r="227"/>
        <path fill="#CDCDCD" d="M309.797 185.408L178.94 299.17l-33.602-38.651 130.859-113.762z"/>
        <path fill="#FFF" d="M146.28 78L310 134.336v51.214l-163.72-56.335zM145 260.45l163.721 56.336V368L145 311.665z"/>
    </symbol>

    <symbol id="social-ok" viewBox="0 0 97.8 97.8">
        <path
            d="M48.9 40.5c4.7 0 8.4-3.8 8.4-8.4 0-4.7-3.7-8.4-8.4-8.4s-8.5 3.8-8.4 8.5c0 4.6 3.7 8.3 8.4 8.3z"/>
        <path
            d="M48.9 0C21.9 0 0 21.9 0 48.9s21.9 48.9 48.9 48.9 48.9-21.9 48.9-48.9S75.9 0 48.9 0zm0 14.9c9.5 0 17.2 7.8 17.1 17.4 0 9.4-7.8 17-17.3 17-9.4 0-17.1-7.8-17.1-17.3.1-9.5 7.8-17.2 17.3-17.1zm19.3 41.2c-2.1 2.2-4.6 3.7-7.5 4.8-2.7 1-5.6 1.6-8.5 1.9.4.5.6.7.9 1l11.8 11.8c1.3 1.3 1.6 3 .9 4.6-.8 1.7-2.6 2.8-4.4 2.7-1.1-.1-2-.6-2.8-1.4-3-3-6-5.9-8.9-8.9-.8-.9-1.2-.7-2 .1-3 3.1-6 6.1-9 9.1-1.4 1.3-3 1.6-4.6.8-1.7-.8-2.8-2.5-2.7-4.3.1-1.2.6-2.1 1.4-2.9l11.6-11.6.9-.9c-5.3-.6-10-1.8-14.1-5l-1.5-1.2c-1.8-1.7-2-3.7-.6-5.7 1.2-1.7 3.2-2.2 5.3-1.2.4.2.8.4 1.2.7 7.6 5.2 18 5.4 25.6.2.8-.6 1.6-1 2.5-1.3 1.8-.5 3.5.2 4.5 1.8 1.4 1.7 1.4 3.4 0 4.9z"/>
    </symbol>

    <symbol id="symbol-triangle" viewBox="0 0 13 14">
        <path d="M12.8236576 6.6006227L.7146319 13.1364984V.064747z"/>
    </symbol>

    <symbol id="symbol-spinner" viewBox="0 0 512 512">
        <path d="M256 418.34c-7.919 0-14.342 6.421-14.342 14.342v64.977c0 7.921 6.422 14.342 14.342 14.342s14.342-6.421 14.342-14.342v-64.977c0-7.921-6.423-14.342-14.342-14.342zM256 0c-7.919 0-14.342 6.421-14.342 14.342v64.977c0 7.921 6.422 14.342 14.342 14.342s14.342-6.421 14.342-14.342V14.342C270.342 6.421 263.919 0 256 0zM174.83 396.592c-6.863-3.96-15.63-1.611-19.591 5.249l-32.488 56.271c-3.961 6.86-1.611 15.631 5.249 19.591a14.274 14.274 0 0 0 7.157 1.923c4.956 0 9.778-2.573 12.434-7.172l32.488-56.271c3.961-6.86 1.611-15.631-5.249-19.591zM384 34.3c-6.862-3.961-15.63-1.611-19.591 5.249L331.921 95.82c-3.961 6.86-1.611 15.631 5.249 19.591a14.341 14.341 0 0 0 19.591-5.249l32.488-56.271c3.961-6.86 1.611-15.632-5.249-19.591zM115.408 337.17c-3.96-6.858-12.731-9.21-19.591-5.249l-56.271 32.488c-6.86 3.96-9.21 12.731-5.249 19.591 2.658 4.601 7.476 7.172 12.434 7.172 2.432 0 4.899-.62 7.156-1.923l56.271-32.488c6.861-3.96 9.211-12.731 5.25-19.591zM477.702 128c-3.961-6.858-12.731-9.209-19.591-5.249l-56.271 32.488c-6.86 3.96-9.21 12.731-5.249 19.591 2.658 4.601 7.476 7.172 12.434 7.172 2.434 0 4.899-.62 7.156-1.923l56.271-32.488c6.86-3.96 9.211-12.731 5.25-19.591zM79.318 241.658H14.342C6.422 241.658 0 248.079 0 256s6.422 14.342 14.342 14.342h64.977c7.919 0 14.342-6.421 14.342-14.342-.001-7.921-6.423-14.342-14.343-14.342zM497.658 241.658h-64.977c-7.919 0-14.342 6.421-14.342 14.342s6.422 14.342 14.342 14.342h64.977c7.919 0 14.342-6.421 14.342-14.342s-6.422-14.342-14.342-14.342zM110.159 155.239l-56.271-32.488c-6.861-3.961-15.631-1.611-19.591 5.249-3.961 6.86-1.611 15.631 5.249 19.591l56.273 32.488a14.273 14.273 0 0 0 7.156 1.923c4.957 0 9.778-2.571 12.433-7.172 3.961-6.86 1.611-15.631-5.249-19.591zM472.454 364.409l-56.271-32.488c-6.862-3.961-15.631-1.609-19.591 5.249-3.961 6.86-1.611 15.631 5.249 19.591l56.271 32.488a14.273 14.273 0 0 0 7.156 1.923c4.957 0 9.778-2.571 12.434-7.172 3.962-6.86 1.612-15.631-5.248-19.591zM180.079 95.819l-32.488-56.271c-3.961-6.86-12.731-9.21-19.591-5.249-6.86 3.96-9.21 12.731-5.249 19.591l32.488 56.273c2.658 4.601 7.476 7.172 12.434 7.172 2.432 0 4.899-.621 7.157-1.925 6.86-3.96 9.21-12.732 5.249-19.591zM389.249 458.112l-32.488-56.271c-3.961-6.858-12.73-9.21-19.591-5.249-6.86 3.96-9.21 12.731-5.249 19.591l32.488 56.271c2.657 4.601 7.476 7.172 12.434 7.172 2.432 0 4.899-.62 7.157-1.923 6.86-3.96 9.21-12.731 5.249-19.591z"/>
        <path d="M256 0c-7.919 0-14.342 6.421-14.342 14.342v64.977c0 7.921 6.422 14.342 14.342 14.342s14.342-6.421 14.342-14.342V14.342C270.342 6.421 263.919 0 256 0zM256 418.34c-7.919 0-14.342 6.421-14.342 14.342v64.977c0 7.921 6.422 14.342 14.342 14.342s14.342-6.421 14.342-14.342v-64.977c0-7.921-6.423-14.342-14.342-14.342z"/>
    </symbol>

    <symbol id="logo-header-old" viewBox="0 0 137 47">
        <g fill-rule="nonzero" fill="none">
            <path
                d="M1.09 23.573V6.651h.676v4.172h.067C2.171 9.489 2.846 8.387 3.86 7.54a5.315 5.315 0 0 1 3.512-1.27c1.374 0 2.5.338 3.423 1.037.923.7 1.508 1.652 1.779 2.902h.067a5.167 5.167 0 0 1 2.027-2.838c1.013-.72 2.184-1.08 3.49-1.08 1.013 0 1.891.148 2.612.444.72.297 1.305.72 1.71 1.25.406.53.721 1.186.901 1.927.203.763.293 1.61.293 2.563v11.12H23V12.496c0-1.186-.135-2.181-.428-3.007-.293-.805-.788-1.44-1.509-1.885-.72-.445-1.666-.678-2.904-.678-1.622 0-2.95.572-3.94 1.737-.992 1.165-1.51 2.562-1.532 4.193v10.717h-.675V12.73c0-1.821-.338-3.24-.991-4.257-.676-1.038-1.892-1.546-3.67-1.546-.833 0-1.576.19-2.275.55a5.62 5.62 0 0 0-1.8 1.568 7.805 7.805 0 0 0-1.15 2.266A8.767 8.767 0 0 0 1.722 14v9.573h-.63zM67.626 11.65h-.675c0-1.102-.225-1.992-.698-2.69a4.07 4.07 0 0 0-1.959-1.547c-.833-.318-1.824-.487-2.972-.487-2.05 0-3.445.424-4.166 1.25-.72.826-1.058 1.61-1.058 2.35 0 1.483.653 2.457 1.936 2.966.383.127.721.233 1.014.317.292.085.63.191 1.013.297.383.106.743.19 1.08.275.338.085.789.19 1.33.34 1.215.317 2.206.592 2.949.889.743.275 1.373.72 1.869 1.313.518.593.765 1.377.765 2.372 0 1.06-.292 1.949-.9 2.648-.608.72-1.396 1.228-2.342 1.546a9.487 9.487 0 0 1-3.04.487c-1.53 0-2.837-.233-3.873-.678-1.035-.445-1.824-1.122-2.364-2.054-.54-.932-.81-2.076-.81-3.474h.675c0 1.843.54 3.22 1.644 4.151 1.103.932 2.68 1.398 4.728 1.398.923 0 1.824-.127 2.68-.423a4.951 4.951 0 0 0 2.116-1.313c.563-.615.833-1.356.833-2.246 0-.72-.157-1.313-.473-1.779a3.376 3.376 0 0 0-1.283-1.122 8.707 8.707 0 0 0-1.779-.678c-.63-.17-1.463-.381-2.454-.614a89.21 89.21 0 0 1-2.544-.678c-.45-.127-.901-.296-1.351-.487-.721-.318-1.261-.741-1.6-1.292-.337-.55-.494-1.292-.494-2.182 0-.699.202-1.376.607-2.012.406-.635 1.036-1.165 1.914-1.588.879-.424 2.004-.636 3.378-.636 2.004 0 3.557.445 4.66 1.335 1.104.868 1.644 2.224 1.644 4.045M83.298 11.65h-.675c0-1.102-.226-1.992-.698-2.69a4.07 4.07 0 0 0-1.96-1.547c-.833-.318-1.823-.487-2.972-.487-2.071 0-3.445.424-4.165 1.25-.72.826-1.058 1.61-1.058 2.35 0 1.483.653 2.457 1.936 2.966.383.127.72.233 1.013.317.293.085.63.191 1.013.297.383.106.743.19 1.081.275.338.085.788.19 1.329.34 1.216.317 2.206.592 2.95.889.742.275 1.373.72 1.868 1.313.518.593.766 1.377.766 2.372 0 1.06-.293 1.949-.9 2.648-.609.72-1.397 1.228-2.343 1.546a9.487 9.487 0 0 1-3.04.487c-1.553 0-2.836-.233-3.872-.678-1.036-.445-1.824-1.122-2.364-2.054-.54-.932-.811-2.076-.811-3.474h.676c0 1.843.54 3.22 1.643 4.151 1.104.932 2.68 1.398 4.729 1.398.923 0 1.824-.127 2.68-.423a4.951 4.951 0 0 0 2.116-1.313c.563-.615.833-1.356.833-2.246 0-.72-.158-1.313-.473-1.779a3.376 3.376 0 0 0-1.283-1.122 8.707 8.707 0 0 0-1.78-.678c-.63-.17-1.463-.381-2.454-.614a89.21 89.21 0 0 1-2.544-.678c-.45-.127-.9-.296-1.35-.487-.721-.318-1.262-.741-1.6-1.292-.337-.55-.495-1.292-.495-2.182 0-.699.203-1.376.608-2.012.405-.635 1.036-1.165 1.914-1.588.878-.424 2.004-.636 3.377-.636 2.004 0 3.558.445 4.661 1.335 1.081.868 1.644 2.224 1.644 4.045M86.585 14.572h13.87c0-1.038-.134-2.033-.427-2.944-.293-.91-.72-1.737-1.329-2.457-.608-.72-1.328-1.292-2.184-1.673-.855-.381-1.824-.572-2.927-.572-1.26 0-2.41.318-3.445.932-1.036.614-1.869 1.525-2.5 2.669-.607 1.164-.968 2.52-1.058 4.045m14.569.657H86.585c.023 2.456.608 4.426 1.712 5.888 1.103 1.461 2.837 2.202 5.156 2.202 1.824 0 3.355-.487 4.57-1.461 1.217-.974 1.96-2.372 2.23-4.151h.675c-.225 1.906-1.035 3.43-2.386 4.574-1.351 1.144-3.04 1.695-5.021 1.695-1.734 0-3.153-.381-4.301-1.123a6.775 6.775 0 0 1-2.522-3.134c-.54-1.335-.81-2.86-.81-4.618 0-1.779.36-3.346 1.058-4.702.698-1.355 1.643-2.372 2.814-3.07 1.171-.7 2.41-1.06 3.76-1.06 1.261 0 2.365.233 3.355.7.969.465 1.78 1.1 2.387 1.884.63.805 1.081 1.737 1.396 2.86.338 1.08.496 2.266.496 3.516M104.531 15.144c0 1.482.27 2.86.833 4.109.563 1.25 1.374 2.245 2.432 2.965 1.058.741 2.32 1.101 3.76 1.101 2.14 0 3.806-.783 4.976-2.35 1.171-1.568 1.757-3.517 1.757-5.825 0-1.398-.248-2.711-.72-3.96a7.057 7.057 0 0 0-2.23-3.072c-1.013-.784-2.252-1.186-3.76-1.186-1.419 0-2.657.318-3.715.974-1.059.657-1.892 1.61-2.455 2.838-.585 1.25-.878 2.711-.878 4.406zm0-15.102v11.332h.068c.225-.784.54-1.483.923-2.118.405-.615.9-1.165 1.486-1.61.585-.445 1.26-.784 2.049-1.038.788-.254 1.621-.36 2.522-.36 1.17 0 2.229.233 3.152.7a6.727 6.727 0 0 1 2.342 1.948 8.703 8.703 0 0 1 1.44 2.859c.316 1.059.474 2.203.474 3.389 0 1.313-.158 2.478-.496 3.537a8.535 8.535 0 0 1-1.463 2.774 6.41 6.41 0 0 1-2.364 1.864c-.946.445-1.96.657-3.063.657-1.148 0-2.184-.212-3.152-.657-.946-.444-1.756-1.038-2.387-1.8a7.113 7.113 0 0 1-1.418-2.648h-.068v4.724h-.675V.085h.63V.042zM121.801 15.101c0 1.462.27 2.817.833 4.067a6.925 6.925 0 0 0 2.455 3.008c1.08.762 2.386 1.122 3.873 1.122 1.486 0 2.77-.381 3.85-1.122a7.265 7.265 0 0 0 2.477-3.008c.563-1.25.833-2.605.833-4.067 0-1.1-.158-2.139-.473-3.113a8.62 8.62 0 0 0-1.374-2.605 6.642 6.642 0 0 0-2.229-1.8c-.878-.445-1.914-.657-3.062-.657s-2.161.212-3.04.656c-.878.445-1.643 1.038-2.251 1.822a8.65 8.65 0 0 0-1.396 2.647c-.36.996-.496 2.013-.496 3.05m-.698 0c0-1.143.18-2.245.518-3.346.36-1.101.856-2.055 1.531-2.86a7.124 7.124 0 0 1 2.455-1.927c.968-.466 2.094-.699 3.355-.699 1.62 0 3.04.403 4.21 1.208 1.194.804 2.072 1.885 2.702 3.24.608 1.356.923 2.817.923 4.384 0 1.589-.315 3.072-.923 4.406-.608 1.355-1.508 2.436-2.702 3.24-1.193.805-2.612 1.229-4.255 1.229-1.194 0-2.297-.233-3.288-.699a7.014 7.014 0 0 1-2.522-1.991 8.78 8.78 0 0 1-1.53-2.88 12.362 12.362 0 0 1-.474-3.305M28.29 19.443c0-.444.045-.89.113-1.334a9.71 9.71 0 0 1 .968-3.05c1.17-2.266 2.927-3.897 5.359-4.829.45-.17.923-.297 1.396-.402h.067c-.112.275-.225.53-.337.783-.293.805-.496 1.61-.586 2.457a10.81 10.81 0 0 0 .09 3.071c.45 2.478 1.644 4.575 3.603 6.227a10.036 10.036 0 0 0 4.66 2.224c.902.17 1.802.212 2.703.148h.067c-.09.17-.202.318-.315.488-1.126 1.588-2.59 2.795-4.458 3.537a9.47 9.47 0 0 1-2.545.614c-.157.021-.315.021-.45.042-.022 0-.045-.021-.067.021h-.068c-.022-.02-.067 0-.09 0h-.405c-.045-.02-.09 0-.158 0H37.5c-.135-.02-.27-.02-.405-.02a6.625 6.625 0 0 1-1.103-.17 9.575 9.575 0 0 1-2.274-.784 10.242 10.242 0 0 1-1.937-1.25 8.927 8.927 0 0 1-.81-.762 9.99 9.99 0 0 1-.879-1.038 8.846 8.846 0 0 1-.9-1.525 10.93 10.93 0 0 1-.743-2.075c-.09-.382-.158-.784-.203-1.165-.022-.17-.022-.318-.045-.488 0-.169-.023-.338 0-.529.09-.064.09-.127.09-.19"
                fill="#000"/>
            <path
                d="M51.91 10.294c0 .338-.023.698-.045 1.037-.113 1.038-.36 2.055-.788 3.008-.99 2.224-2.612 3.918-4.864 4.998a9.307 9.307 0 0 1-2.139.7h-.045c0-.043.023-.064.023-.085.427-.932.698-1.885.833-2.88.09-.636.135-1.272.09-1.907-.09-2.287-.856-4.363-2.297-6.185-1.306-1.63-2.95-2.774-4.976-3.41a9.452 9.452 0 0 0-2.432-.444 13.429 13.429 0 0 0-1.306 0h-.18a9.854 9.854 0 0 1 3.288-3.283A9.88 9.88 0 0 1 41.575.445c.022-.021.067 0 .09 0h.112c.068 0 .113.021.18 0h.338c.045.021.113 0 .158 0h.18c.518 0 1.013.085 1.531.19.81.17 1.576.445 2.32.805a10.632 10.632 0 0 1 2.431 1.695c.315.296.608.614.878.953.473.593.856 1.228 1.194 1.885.338.678.585 1.398.743 2.139.09.36.135.741.18 1.101.022.17.045.34.045.509-.045.211-.023.402-.045.572"
                fill="#EA5C37"/>
            <path d="M28.338 20.05l-.07-.607h.07v.607" fill="#EFEFEF"/>
            <path d="M42.316.445c-.14.135-.35.067-.561.067h.56V.445z" fill="#EE7D5F"/>
            <path d="M42.786.512c-.14 0-.35.068-.49-.067l.49.067c0-.067 0-.067 0 0" fill="#EF8367"/>
            <path d="M37.918 29.43c.14 0 .35-.067.49.068l-.49-.067c-.07.067-.07.067 0 0-.07 0 0 0 0 0" fill="#1B1D1D"/>
            <path d="M38.22 29.487c.14-.068.28-.068.42-.068h-.42v.068z" fill="#29292B"/>
            <path d="M42.015.445s0 .067 0 0c-.14.067-.21.067-.35.067V.445h.35z" fill="#F4A894"/>
            <path d="M42.871.445s0 .067 0 0c-.07.067-.21.067-.35.067h.35V.445z" fill="#F9CFC2"/>
            <path d="M38.12 29.42c0 .067 0 .067 0 0l-.35.067c.07-.068.21 0 .35-.068" fill="#383B3B"/>
            <path d="M41.855.445s0 .067 0 0c-.07.067-.21.067-.28.067V.445h.28z" fill="#FAD4C9"/>
            <path d="M42.733.445s0 .067 0 0c-.07.067-.21.067-.28.067V.445h.28z" fill="#F4A591"/>
            <path d="M38.355 29.487c.07-.068.21-.068.28-.068h-.28v.068z" fill="#585858"/>
            <path d="M38.445 29.481c.07 0 .21-.134.28 0h-.28z" fill="#868689"/>
            <g fill="#1D1D1B">
                <path
                    d="M.113 45.26c.9-.02 1.44-.4 1.777-2.72l.45-3.1H6.3v5.78h.63v1.64h-.607V45.7H.72v1.16H.113v-1.6zm1.192-.04h4.41v-5.3H2.902l-.382 2.66c-.248 1.6-.653 2.32-1.215 2.64zM10.418 45.72v-6.26h.607v5.32l4.41-5.32h.607v6.26h-.607v-5.38l-4.433 5.38zM19.485 44.78l.405-.32c.405.5 1.192.88 2.137.88 1.17 0 1.913-.5 1.913-1.34 0-.9-.855-1.26-1.935-1.26h-1.462v-.48h1.462c.968 0 1.8-.36 1.8-1.2 0-.78-.832-1.22-1.8-1.22-.855 0-1.485.28-2.025.8l-.36-.34c.517-.54 1.35-.94 2.43-.94 1.26 0 2.407.6 2.407 1.66 0 .96-.9 1.38-1.507 1.46.608.06 1.62.52 1.62 1.56s-.968 1.8-2.52 1.8c-1.238-.02-2.137-.5-2.565-1.06zM33.322 45.72l-.697-1.54H28.89l-.698 1.54h-.697l2.88-6.26h.742l2.88 6.26h-.675zm-2.565-5.7l-1.665 3.66h3.33l-1.664-3.66zM37.35 45.72v-6.26h.608v5.32l4.41-5.32h.607v6.26h-.608v-5.38l-4.432 5.38h-.585zm2.835-6.66c-.742 0-1.418-.32-1.867-.82l.315-.24c.36.44.9.7 1.552.7s1.192-.28 1.552-.7l.293.24c-.428.5-1.102.82-1.845.82zM51.998 45.72v-2.98H47.52v2.98h-.608v-6.26h.608v2.8h4.477v-2.8h.608v6.26zM61.763 45.72v-6.26h.607v5.32l4.41-5.32h.608v6.26h-.608v-5.38l-4.433 5.38zM76.41 45.72v-2.98h-4.477v2.98h-.608v-6.26h.608v2.8h4.477v-2.8h.608v6.26zM82.755 45.72v-5.78H80.46v-.48h5.22v.48h-2.295v5.78zM89.1 45.72v-6.26h4.478v.48h-3.87v2.32h3.802v.48h-3.803v2.48h3.87v.48H89.1zM97.11 45.72v-6.26h2.655c1.35 0 2.115.84 2.115 1.84s-.787 1.84-2.115 1.84h-2.047v2.6h-.608v-.02zm4.14-4.44c0-.78-.63-1.34-1.552-1.34h-1.98v2.68h1.98c.922 0 1.552-.56 1.552-1.34zM105.93 39.44v2.6h2.047c1.35 0 2.115.84 2.115 1.84 0 .98-.764 1.84-2.114 1.84h-2.655v-6.26h.607v-.02zm0 3.1v2.68h1.98c.922 0 1.553-.56 1.553-1.34s-.63-1.34-1.553-1.34h-1.98zM113.535 45.72v-6.26h4.478v.48h-3.87v2.32h3.802v.48h-3.802v2.48h3.87v.48h-4.478zM121.545 45.72v-6.26h2.655c1.35 0 2.115.84 2.115 1.84s-.787 1.84-2.115 1.84h-2.047v2.6h-.608v-.02zm4.14-4.44c0-.78-.63-1.34-1.553-1.34h-1.98v2.68h1.98c.923 0 1.553-.56 1.553-1.34zM134.303 45.72l-.698-1.54h-3.735l-.697 1.54h-.698l2.88-6.26h.743l2.88 6.26h-.675zm-2.565-5.7l-1.666 3.66h3.33l-1.664-3.66z"/>
            </g>
        </g>
    </symbol>

    <symbol id="logo-header" viewBox="0 0 617.5 229.2"><path d="M102.8 48a27 27 0 0 0-4.3-9.5 18.3 18.3 0 0 0-8-6.3A30.7 30.7 0 0 0 62 35.4c-4.1 3-7 7-8.8 11.7-1.5-5-4-9-7.7-12a25 25 0 0 0-16.1-5.2c-6.2 0-11.8 2.1-16.5 6.3a30 30 0 0 0-8 11.5v-16H0v83.4h4.9v-47c0-4.5.6-8.7 1.8-12.7 1.2-4.1 2.9-7.7 5-10.7 2-3 4.7-5.4 7.9-7.2 2.9-1.7 6.2-2.6 9.8-2.6 7.8 0 13 2.3 15.8 7a38.6 38.6 0 0 1 4.4 20V115h4.9V62.5c.1-7.7 2.3-14.2 6.7-19.6 4.4-5.5 10-8.1 17.1-8.1 5.3 0 9.6 1 12.5 3.1 3 2.2 5.2 5 6.4 8.7a45 45 0 0 1 2 14.1v54.4h4.9V60.7c0-4.8-.4-9-1.3-12.6zM292.8 74.9c-3.2-1.3-7.6-2.7-13.4-4.3l-2-.5-4-1.2-1.7-.4-3.3-.9-2.2-.7-2.3-.6-2.3-.8-2.3-.8c-5.5-2.3-8.2-6.7-8.2-13.4 0-3.3 1.5-7 4.6-10.7 3-3.8 9-5.7 18-5.7 5.3 0 9.6.7 13.1 2.2 3.6 1.5 6.4 3.8 8.4 7 2 3.4 3 7.6 3 12.6v.9h5v-.9c0-8.8-2.5-15.7-7.4-20.4a32 32 0 0 0-21.7-6.6 35 35 0 0 0-15.7 3.2 21.5 21.5 0 0 0-9.1 8 22.7 22.7 0 0 0-.4 21.2 16 16 0 0 0 7.6 6.7c1.8.8 4 1.7 6.2 2.4a362.3 362.3 0 0 0 22.6 6c2.3.8 5.2 1.8 7.8 3.3 2.3 1.3 4 3 5.5 5 1.4 2.2 2 4.9 2 8.2 0 4-1.1 7.5-3.5 10.2a19.6 19.6 0 0 1-9.2 6.1 37 37 0 0 1-11.8 2c-9.2 0-16-2.1-20.8-6.5-4.7-4.3-7.1-10.8-7.1-19.3v-1h-5v1c0 6.8 1.3 12.4 3.8 17.1 2.5 4.7 6.2 8.1 11.1 10.3A43.8 43.8 0 0 0 276 117c5.2 0 9.8-.8 14-2.4 4.6-1.7 8.3-4.3 11-7.7 3-3.6 4.4-8.1 4.4-13.4 0-5-1.3-9-3.7-12-2.3-2.8-5.1-5-8.9-6.5zM363.7 74.9c-3.2-1.3-7.6-2.7-13.4-4.3l-2-.5-4-1.2-1.7-.4-3.2-.9-3.8-1.1-.8-.2-2.3-.8-2.3-.8c-5.5-2.3-8.2-6.7-8.2-13.4 0-3.3 1.5-7 4.6-10.7 3-3.8 9-5.7 18-5.7 5.3 0 9.6.7 13.2 2.2 3.5 1.5 6.3 3.8 8.3 7 2 3.4 3 7.6 3 12.6v.9h5v-.9c0-9-2.5-15.8-7.4-20.4a32 32 0 0 0-21.7-6.6 35 35 0 0 0-15.7 3.2 21.5 21.5 0 0 0-9 8 22.7 22.7 0 0 0-.4 21.2 16 16 0 0 0 7.5 6.7c1.9.8 4 1.7 6.2 2.4a354.4 354.4 0 0 0 22.6 6c2.3.8 5.3 1.8 7.8 3.3 2.3 1.3 4 3 5.5 5 1.4 2.2 2 4.9 2 8.2 0 4-1.1 7.5-3.5 10.2a19.6 19.6 0 0 1-9.2 6.1 37 37 0 0 1-11.8 2c-9.2 0-16-2.1-20.8-6.5-4.7-4.3-7.1-10.8-7.1-19.3v-1h-5v1c0 6.8 1.3 12.4 3.8 17.1 2.5 4.7 6.2 8.1 11.1 10.3A43.8 43.8 0 0 0 347 117c5.2 0 9.8-.8 14.1-2.4 4.5-1.7 8.2-4.3 11-7.7 2.8-3.6 4.3-8.1 4.3-13.4 0-5-1.3-9-3.7-12-2.3-2.8-5.2-5-8.9-6.5zM446.2 42.8c-3-4-6.7-7.2-11.1-9.4a34.8 34.8 0 0 0-33.1 1.8 36.4 36.4 0 0 0-13 15.2 64 64 0 0 0-1.1 45.5 33 33 0 0 0 11.7 15.5c5.3 3.7 12 5.6 20 5.6 9.2 0 17-2.8 23.4-8.4 6.4-5.8 10-13.4 11-22.6l.2-1h-4.9l-.1.8a30 30 0 0 1-9.8 19.4 29.2 29.2 0 0 1-20.1 7c-10.2 0-17.8-3.5-22.6-10.3a47.3 47.3 0 0 1-7.6-27H455V74c0-6.3-.7-12-2.2-17.3a43.2 43.2 0 0 0-6.6-14zm4 27.1h-61c.4-7 2-13 4.8-18.2 2.9-5.6 6.5-9.7 11-12.5 4.5-3 9.6-4.4 15.1-4.4 4.9 0 9 .9 12.8 2.7 3.7 1.7 7 4.3 9.6 7.8 2.6 3.3 4.5 7.2 5.8 11.6 1.2 3.9 1.8 8.3 1.9 13zM527 43a30.4 30.4 0 0 0-25.7-13.1c-4.2 0-8.1.6-11.7 1.9a30.9 30.9 0 0 0-19.2 18.9V0h-5v115h5V95.9c1.3 3.2 3 6.1 5.2 8.9a31.7 31.7 0 0 0 25.8 12.2 31.7 31.7 0 0 0 25.3-12.5c3-4 5.2-8.5 6.7-13.6a61.6 61.6 0 0 0 .2-34 42.8 42.8 0 0 0-6.7-14zm3.8 30.6c0 11-2.5 20-7.7 27.5a25.2 25.2 0 0 1-21.8 10.9c-6.3 0-11.8-1.7-16.5-5.1-4.6-3.4-8.2-8.1-10.7-14a51 51 0 0 1-3.7-19.4 52 52 0 0 1 3.8-20.7A29.2 29.2 0 0 1 485 39.5c4.7-3 10.2-4.6 16.3-4.6 6.6 0 12 1.8 16.4 5.5 4.4 3.7 7.7 8.6 9.9 14.4a54.4 54.4 0 0 1 3.2 18.8zM612.2 51.7c-2.9-6.7-7-12-12.5-16-5.4-3.9-12-6-19.6-6-6 0-11.2 1.3-15.6 3.6a34.2 34.2 0 0 0-11.4 9.6 44.4 44.4 0 0 0-7 14 55.9 55.9 0 0 0-.1 32.4c1.5 5.1 3.8 9.7 7 14.1a32.7 32.7 0 0 0 27 13.4 33 33 0 0 0 19.7-6c5.5-4 9.6-9.3 12.5-16a53.3 53.3 0 0 0 4.3-21.6c0-7.7-1.4-14.9-4.3-21.5zm-.7 21.7c0 6.7-1.3 13.2-3.7 19.3a32.8 32.8 0 0 1-11 14A27.8 27.8 0 0 1 580 112c-6.6 0-12.3-1.8-17-5.2A32 32 0 0 1 552 92.7a54.7 54.7 0 0 1-1.7-33.8c1.5-4.8 3.6-8.9 6.3-12.6A28.1 28.1 0 0 1 580 34.8c5 0 9.6 1 13.5 3 3.9 2.1 7.2 5 9.8 8.5a48.7 48.7 0 0 1 8.2 27zM124.2 94.3a49.8 49.8 0 0 1 4.8-21.1 45.5 45.5 0 0 1 30.7-25.1h.3c-.5 1.3-1.1 2.5-1.5 3.8a52.6 52.6 0 0 0-2.2 26.7c2.1 11.9 7.4 22 16.4 30A45.2 45.2 0 0 0 206 120h.3l-1.4 2.3a45.4 45.4 0 0 1-20.1 17 41.5 41.5 0 0 1-11.5 3l-2.1.2c-.1 0-.2-.1-.3.1h-.3c-.1-.1-.3 0-.4 0h-4.1l-1.8-.1a42.5 42.5 0 0 1-31.6-19.3 47.2 47.2 0 0 1-8.3-22.9l-.2-2.4v-2.5a2 2 0 0 1 0-1.1"/><path fill="#ea5c37" d="M231.1 50.2l-.2 5a48.2 48.2 0 0 1-25.7 38.6 37.3 37.3 0 0 1-9.7 3.4h-.2l.1-.4a51.2 51.2 0 0 0 4.2-23.1c-.5-11-3.8-21-10.4-29.8a46.5 46.5 0 0 0-39.5-18.7h-.8c3.8-6.5 8.7-11.8 14.9-15.8s13-6.3 20.4-6.7c.1-.1.3 0 .4 0h.5c.3 0 .5.1.8 0H189a40.3 40.3 0 0 1 25.8 10.6l2.5 2.4 4 4.6a52 52 0 0 1 9.6 24.7l.2 2.4v2.8"/><path fill="#f0f0f0" d="M124.2 95.2l-.1-1h.1v1"/><path fill="#ef7e5f" d="M186 2.8c-.3.2-.5.1-.8.1h.8v-.1z"/><path fill="#f08468" d="M188.3 2.9c-.2 0-.5.1-.7-.1l.7.1c0-.1 0-.1 0 0"/><path fill="#1b1d1d" d="M167.6 142.3c.2 0 .5-.1.7.1l-.7-.1c-.1.1-.1.1 0 0-.1 0-.1 0 0 0"/><path fill="#2a2a2c" d="M169.1 142.4c.2-.2.4-.1.6-.1h-.6v.1z"/><path fill="#f5a996" d="M185.2 2.8s0 .1 0 0l-.5.1v-.1h.5z"/><path fill="#fad0c3" d="M189.1 2.8l-.4.1h.4v-.1z"/><path fill="#393b3b" d="M167.6 142.3s0 .1 0 0l-.5.1c.1-.2.3 0 .5-.1"/><path fill="#fbd5ca" d="M184.7 2.8s0 .1 0 0l-.4.1v-.1h.4z"/><path fill="#f5a692" d="M188.7 2.8l-.4.1v-.1h.4z"/><path fill="#585858" d="M169.8 142.4s0-.1 0 0l.4-.1h-.4v.1z"/><path fill="#87878a" d="M170.2 142.4c.1 0 .3-.2.4 0h-.4z"/><g><path d="M33.6 177.4H10.2v.8c0 12.4-.7 25.2-5.6 35.1H0v15.9h3v-12.9h32.4v12.9h3v-15.9h-4.8v-35.9zm-3.2 3v33H8c4.7-10.1 5.2-22.2 5.2-33h17.4zM48.5 211.8v-34.4h-3.1v38.9h3.5l23.5-34.4v34.4h3.1v-38.9H72zM108 195.6c3.2-1.4 5-4.4 5-8.5 0-6.6-5.3-10.8-14-10.8-8.9 0-13.6 4-14.4 12.2v.8h3v-.7c.8-6.4 4.2-9.2 11.4-9 6.9 0 11 2.8 11 7.6 0 4.6-3.2 7.2-8.7 7.2H95v2.9h6.2c5.9 0 9.5 2.8 9.5 7.3 0 5.7-5.2 9.8-12.4 9.8-7.7 0-11.9-4-11.9-11v-1H83.4v.8c0 8.9 5.6 14.2 15 14.2 9.1 0 15.5-5.3 15.5-12.8 0-4.1-2.4-7.6-6-9zM153.2 213.5c-1.4 0-2-.4-2-3v-22.6c0-7.3-4.8-11.4-13.6-11.4-8.7 0-13.9 4.7-14.6 13.2v.8h2.6v-.7c.7-6.9 4.6-10.4 11.6-10.4 7.4 0 10.7 3 10.7 9.5v.3c0 1.8 0 3-1.1 3.7-1 .7-2.9.8-6.7 1l-4 .3c-10.4.7-15.5 4.7-15.5 12 0 7 5 11.2 13.3 11.2 6.4 0 11-2.5 14.1-7.5 0 3.2.2 6.4 4.8 6.4 1 0 1.7-.1 2.5-.3h.8v-3.2l-1 .4a5 5 0 0 1-2 .3zm-5.1-18.1v5.2c0 3.6-1.9 7.7-4.7 10.5a12.5 12.5 0 0 1-9.4 3.4c-6.6 0-10.3-3-10.3-8.1 0-7.3 5.7-8.8 12-9.2l4-.3c3.8-.2 6.6-.4 8.4-1.5zM165.4 211.8v-34.4h-3.1v38.9h3.5l23.5-34.4v34.4h3v-38.9h-3.5zM177.3 172.3c5.5 0 8.9-3 9.9-8.5l.1-1h-3l-.2.7c-.5 3.8-2.7 5.7-6.7 5.7-3.7 0-6-2-6.7-5.7l-.1-.7h-3.1l.1 1c1.1 5.5 4.5 8.5 9.7 8.5zM229.4 194.6h-23.9v-17.2h-3v38.9h3v-18.7h23.9v18.7h3.1v-38.9h-3.1zM271 211.8v-34.4h-3.1v38.9h3.5l23.5-34.4v34.4h3.1v-38.9h-3.5zM335.1 194.6h-23.9v-17.2h-3.1v38.9h3.1v-18.7h23.9v18.7h3.1v-38.9h-3.1zM344.5 180.4h14.7v35.9h3v-35.9h14.7v-3h-32.4zM396.2 176.6c-10.4 0-17.5 8.4-17.5 20.8 0 12 7 20.2 17.5 20.2 8.7 0 15.1-5.8 16.4-14.9v-.9h-3l-.1.7c-.7 5.9-5.2 12.2-13.4 12.2-10.2 0-14-8.9-14.3-16.8H413v-2.3c0-9.2-5.3-19-16.8-19zM381.9 195c.6-7.5 5.2-15.3 14.4-15.3 9.1 0 13.4 7.5 13.7 15.3h-28zM438 176.3c-6.4 0-11 2.8-13.8 8.3v-7h-3v51.8h3v-19.5c2.8 5 7.6 7.7 13.7 7.7 10.2 0 17.1-8.3 17.1-20.5 0-12.6-6.6-20.8-17-20.8zm0 3c8.6 0 14 6.8 14 17.7 0 11-5.4 17.7-14 17.7-3.2 0-13.8-1.2-13.8-17.4 0-11.6 4.9-18 13.9-18zM481.7 193.8h-15v-16.4h-3.1v38.9h17.6c7.8 0 12.7-4.4 12.7-11.4s-4.6-11.1-12.2-11.1zm-.4 19.5h-14.6v-16.5h15.1c5.9 0 9.1 2.9 9.1 8 0 5.4-3.6 8.5-9.6 8.5zM517.2 176.6c-10.4 0-17.5 8.4-17.5 20.8 0 12 7 20.2 17.5 20.2 8.7 0 15.1-5.8 16.4-14.9v-.9h-3v.7c-.8 5.9-5.3 12.2-13.5 12.2-10.2 0-14-8.9-14.3-16.8H534v-2.3c0-9.2-5.3-19-16.8-19zM503 195c.5-7.5 5.1-15.3 14.3-15.3 3.7 0 6.8 1.2 9.2 3.6A17 17 0 0 1 531 195h-28zM559 176.3c-6.3 0-11 2.8-13.8 8.3v-7h-3v51.8h3v-19.5c2.8 5 7.6 7.7 13.8 7.7 10.2 0 17-8.3 17-20.5 0-12.6-6.6-20.8-17-20.8zm0 3c8.6 0 14 6.8 14 17.7 0 11-5.4 17.7-14 17.7-3.2 0-13.8-1.2-13.8-17.4 0-11.6 5-18 13.9-18zM616.5 213.2a5 5 0 0 1-1.9.3c-1.3 0-2-.4-2-3v-22.6c0-7.3-4.8-11.4-13.5-11.4s-13.9 4.7-14.6 13.2v.8h2.9v-.7c.7-6.9 4.6-10.4 11.6-10.4 7.4 0 10.7 3 10.7 9.5v.3c0 1.8 0 3-1.2 3.7-1 .7-2.8.8-6.6 1l-4 .3c-10.5.7-15.5 4.7-15.5 12 0 7 5 11.2 13.3 11.2 6.4 0 11-2.5 14-7.5.1 3.2.3 6.4 4.8 6.4 1.1 0 2.4-.3 2.4-.3l.6-.2v-3l-1 .4zm-6.6-17.8v5.2c0 3.6-1.9 7.7-4.8 10.5a12.5 12.5 0 0 1-9.3 3.4c-6.6 0-10.3-3-10.3-8.1 0-7.3 5.7-8.8 12-9.2l4-.3c3.7-.2 6.5-.4 8.4-1.5z"/></g></symbol>

    <symbol id="symbol-converison-license" viewBox="429.001 432 195.101 82.975">
        <path d="M592.213 514.974l-26.4-5.9a1.583 1.583 0 0 1-1.2-1.5v-7.362l-1.6-.381v12.743a1.507 1.507 0 0 1-1 1.4 1.518 1.518 0 0 1-.478.077 1.571 1.571 0 0 1-1.222-.577l-6.1-7.6-4.9-1.2a1.584 1.584 0 0 1-1.2-1.5v-24.6l-2.2-.5a1.494 1.494 0 0 1-1.1-1.5v-5.3a1.509 1.509 0 0 1 1-1.4l29.3-9.9a1.258 1.258 0 0 1 .4-.075 1.249 1.249 0 0 1 .4.075l10.57 2.241a17.492 17.492 0 0 1 14.53-7.741 17.455 17.455 0 0 1 17.239 14.475l4.361.925a1.515 1.515 0 0 1 1.2 1.5v4.218a1.7 1.7 0 0 1 .2.382 1.491 1.491 0 0 1-1 1.9l-2.2.643v23.857a1.56 1.56 0 0 1-.9 1.4l-27.1 11.1c0 .1-.1.1-.3.1zm-11.7-5.9a1.327 1.327 0 0 1-.011.17l10.516 2.342V486.894l-10.505-2.09zm13.5 2.106l12.082-4.936a1.522 1.522 0 0 1-.582-1.17v-16.185a17.574 17.574 0 0 1-4.5.584 17.377 17.377 0 0 1-7-1.456zm-26.4-4.806l9.9 2.2v-24.372l-9.9-1.972zm-10.6-2.9a1.446 1.446 0 0 1-.234.78l3.234 4.02v-22.6l-3-2.695zm59.7-23.759a17.61 17.61 0 0 1-8.2 8.074v17.285a1.278 1.278 0 0 1-.014.186l9.514-3.886v-22.039zm-65.4 22.46l2.7.643v-22.551a1.548 1.548 0 0 1-.358-.81l-2.342-.466zm11.2-18.3a1.6 1.6 0 0 1 .5 1.1v11.79l1.6.382v-14.273l-4.2-.9zm-14.5-8.662l39.432 7.816a17.542 17.542 0 0 1-1.448-2.062l-37.984-7.63zm47.961-6.282a6.571 6.571 0 0 0-3.708 3.2 4.783 4.783 0 0 0-.7 2v.8a.1.1 0 0 1-.1.1v.6a2.2 2.2 0 0 0 .1.8 5.8 5.8 0 0 0 .5 1.4 3.848 3.848 0 0 0 .471.81l.129.19a4.3 4.3 0 0 0 .6.7 2.6 2.6 0 0 0 .3.249 2.65 2.65 0 0 1 .3.251 5.773 5.773 0 0 0 1.3.8 9.7 9.7 0 0 0 1.6.5 2.711 2.711 0 0 1 .481.058 1.9 1.9 0 0 0 .319.042h1.4a11.62 11.62 0 0 0 1.8-.4 7.183 7.183 0 0 0 3.1-2.3.541.541 0 0 0 .1-.148.517.517 0 0 1 .1-.152 11.466 11.466 0 0 1-1.9-.1 7.354 7.354 0 0 1-3.2-1.5 6.633 6.633 0 0 1-2.5-4.1 4.529 4.529 0 0 1-.1-2 12.657 12.657 0 0 1 .4-1.6.756.756 0 0 0 .2-.5c-.396.102-.694.201-.992.299zm-43.773 2.133l32.228 6.515a17.481 17.481 0 0 1-.916-5.6 17.393 17.393 0 0 1 1.453-6.994l-9.053-1.911zm68.212 2.31l-2.01.559a17.568 17.568 0 0 1-.4 2.244l2.11-.617.9-.385v-2.12a1.364 1.364 0 0 1-.6.319zm-17.846-11.742a8.583 8.583 0 0 0-3.1.9 8.072 8.072 0 0 0-2.3 2.2h1a6.749 6.749 0 0 1 1.9.3 6.481 6.481 0 0 1 3.4 2.2 6.982 6.982 0 0 1 1.6 4.1 5.27 5.27 0 0 1-.1 1.3 6.009 6.009 0 0 1-.6 1.9v.1a8.75 8.75 0 0 0 1.478-.49 6.462 6.462 0 0 0 3.422-3.31 7.281 7.281 0 0 0 .5-2v-.7a1.092 1.092 0 0 0-.1-.5v-.3a1.692 1.692 0 0 0-.1-.7l-.071-.3a13.382 13.382 0 0 0-.329-1.205 8.182 8.182 0 0 0-.8-1.2l-.292-.293-.306-.307a1.385 1.385 0 0 0-.2-.149 1.383 1.383 0 0 1-.2-.15 5.634 5.634 0 0 0-1.3-.8 7.554 7.554 0 0 0-1.6-.5 3.726 3.726 0 0 1-.55-.049 3.727 3.727 0 0 0-.55-.05h-.8zm-54.554 11.7zm-71.8 13.642l-42.7-10.2a1.594 1.594 0 0 1-1.2-1.5v-24.7l-2.2-.5a1.5 1.5 0 0 1-1.1-1.49 1.642 1.642 0 0 1 0-.409v-4.592a1.635 1.635 0 0 1 0-.409c.012-.048.026-.095.042-.14a1.5 1.5 0 0 1 .958-1.059l29.3-9.9a1.105 1.105 0 0 1 .8 0l46.7 9.9a1.507 1.507 0 0 1 1.2 1.5v4.5a1.584 1.584 0 0 1-1 1.9l-1.157.338-.842.361v18.266l30.232 8.1-1.572-2.595a1.45 1.45 0 0 1 .544-2.03 1.45 1.45 0 0 1 2.028.544l3.446 5.685a1.45 1.45 0 0 1-.544 2.03.961.961 0 0 1-.064.034l-.059.036-5.827 3.2a.921.921 0 0 1-.683.23 1.772 1.772 0 0 1-.365-.06 1.589 1.589 0 0 1-.981-.714 1.45 1.45 0 0 1 .544-2.029l2.661-1.462-29.361-7.867v2.532a1.568 1.568 0 0 1-.9 1.4l-27.1 11a.9.9 0 0 1-.5.1zm-23.7-8.9v.11l22.507 5.379V458.894l-22.5-4.48zm25.5-19.726v24.831l24-9.8v-2.233l-7.912-2.12a1.538 1.538 0 0 1-1.061-1.837 1.539 1.539 0 0 1 1.838-1.061l7.135 1.912v-16.7zm-36.5 17.208l8 1.913v-23.651l-8-1.593zm-6.2-1.481l3.2.764v-22.965a1.355 1.355 0 0 1 .022-.243l-3.221-.642zm-3.3-26.863l43 8.524v-1.662l-43-8.734zm72.5-1.838l-26.5 7.638v2.188l26.107-7.644.893-.383v-2.082a1.859 1.859 0 0 1-.5.283zm-68.313-2.311l38.771 7.838a1.683 1.683 0 0 1 .542-.327l24.481-7.057-40.081-8.443z"/>
    </symbol>

    <symbol id="symbol-standart-license" viewBox="400 402 162.3 101.5">
        <path d="M492 503.5l-40.6-9a1.583 1.583 0 0 1-1.2-1.5v-11.7l-4-.8v20.1a1.506 1.506 0 0 1-1 1.4 1.523 1.523 0 0 1-.478.076 1.574 1.574 0 0 1-1.222-.576l-9.5-11.7-7.7-1.8a1.585 1.585 0 0 1-1.2-1.5v-38.1l-2.358-.59-1.542-.31a1.655 1.655 0 0 1-1.2-1.8v-6.592a1.627 1.627 0 0 1 0-.408v-.8a1.509 1.509 0 0 1 1-1.4l45.1-15a1.229 1.229 0 0 1 .4-.075 1.228 1.228 0 0 1 .4.075l15.142 3.159A26.5 26.5 0 0 1 504 413a26.482 26.482 0 0 1 26.062 21.677l8.737 1.823a1.515 1.515 0 0 1 1.2 1.5v7.3a1.331 1.331 0 0 1-.011.171 1.6 1.6 0 0 1-.99 1.929l-3.6 1.061V485.1a1.56 1.56 0 0 1-.9 1.4l-41.7 16.9a1.092 1.092 0 0 1-.5.1zm1-3.5l19.3-7.728a1.459 1.459 0 0 1-.3-.872v-26.628a26.494 26.494 0 0 1-8 1.229 26.3 26.3 0 0 1-11-2.383zm-20-3.834l17 3.749V462q-.726-.454-1.422-.951L473 457.915zm-37.5-8.934a2.207 2.207 0 0 1 .5.368l7.2 8.8v-37l-7.7-6.872zm18.5 4.745l16 3.528v-37.9a1.382 1.382 0 0 1 .029-.278L454 454.1zm74.059-41.351A26.574 26.574 0 0 1 515 463.616v27.561l17.5-7.077v-34.784zM428.1 485.4l4.4 1.054V451a1.5 1.5 0 0 1 .527-1.121l-4.927-.991zm18.7-7.9l3.4.68V454.9l-10-2.2 5.5 4.9a1.6 1.6 0 0 1 .5 1.1v18.835a1.652 1.652 0 0 1 .4-.048 1.728 1.728 0 0 1 .2.013zM423 444.741L484.1 457a26.627 26.627 0 0 1-3.154-4.425L423 440.863zm74.834-10.3a8.479 8.479 0 0 0-1.489.4 10.811 10.811 0 0 0-5.6 4.9 9.5 9.5 0 0 0-1 3c0 .137-.012.274-.023.408a1.8 1.8 0 0 0 .023.692c0 .1 0 .1-.1.2v1a5.035 5.035 0 0 0 .2 1.2 10.214 10.214 0 0 0 .633 1.718l.168.384a5.972 5.972 0 0 0 .9 1.5c.149.149.3.324.448.5s.3.351.452.5a3.034 3.034 0 0 0 .8.8l.258.174a11.086 11.086 0 0 0 1.742 1.026 11.336 11.336 0 0 0 2.4.8 5.051 5.051 0 0 0 1.2.2h2.1a10.755 10.755 0 0 0 2.7-.6 9.773 9.773 0 0 0 4.7-3.5 2.233 2.233 0 0 1 .149-.248 2.2 2.2 0 0 0 .151-.251h-.1a10.522 10.522 0 0 1-1.156.066 7.631 7.631 0 0 1-1.644-.166 10.41 10.41 0 0 1-4.9-2.2 10.176 10.176 0 0 1-3.8-6.2 10.825 10.825 0 0 1-.1-3.1 10.559 10.559 0 0 1 .6-2.4 2.986 2.986 0 0 0 .4-.8h-.1zm-72.286 3.812l53.735 10.824a26.382 26.382 0 0 1-1.783-9.577 26.215 26.215 0 0 1 2.9-12.06l-13.7-2.84zm104.739 4.617a26.59 26.59 0 0 1-.885 4.2l3.768-1.115a2.2 2.2 0 0 1 .229-.158l3.7-1.5v-3.316zm-28.442-17.631a11.869 11.869 0 0 0-3.4 3.3h1.6a7.372 7.372 0 0 1 2.5.4 10.831 10.831 0 0 1 5.2 3.4 9.907 9.907 0 0 1 2.4 6.1 12.054 12.054 0 0 1-.1 1.9 14.033 14.033 0 0 1-.9 2.9v.1l.383-.108a14.529 14.529 0 0 0 1.817-.591 9.958 9.958 0 0 0 5.1-5 11.119 11.119 0 0 0 .8-3v-1a1.276 1.276 0 0 1 .1-.6v-.5a5.126 5.126 0 0 1-.1-.55 5.32 5.32 0 0 0-.1-.55 9.071 9.071 0 0 0-.8-2.1 12.664 12.664 0 0 0-1.3-1.9l-.6-.6-.3-.3a2.667 2.667 0 0 0-.6-.5 10.485 10.485 0 0 0-2-1.2 11.287 11.287 0 0 0-2.4-.8 8.47 8.47 0 0 0-1.6-.2h-1a10.8 10.8 0 0 0-4.699 1.4zM530.5 439.5v.278l4.036-1.111-4.088-.848c.035.558.052 1.117.052 1.681zm21 31.1l-5.8-2.3 5.8-2.4 2.5-5.9 2.1 5.9 6.2 2.4-6.2 2.3-2.1 6.4zM405 464.2l-5-2 5-2.1 2.2-5.1 1.8 5.1 5.4 2.1-5.4 2-1.8 5.5zm146-35.5l-5.3-2.1 5.3-2.2 2.3-5.4 1.9 5.4 5.7 2.2-5.7 2.1-1.9 5.9zm-133.5-12.6l-7.8-3 7.8-3.2 3.3-7.9 2.8 7.9 8.3 3.2-8.3 3-2.8 8.5z"/>
    </symbol>

    <symbol id="symbol-exclusive-license" viewBox="514 437.999 210.812 90.582">
        <path d="M679.713 528.582l-26.3-5.8a1.584 1.584 0 0 1-1.2-1.5v-7.073l-1.5-.355v12.228a1.506 1.506 0 0 1-1 1.4 1.5 1.5 0 0 1-.478.077 1.572 1.572 0 0 1-1.222-.577l-6-7.5-4.8-1.1a1.584 1.584 0 0 1-1.2-1.5v-8.873l-14.853 6.011a1.428 1.428 0 0 1-.6.2h-.3l-42.5-10.2a1.584 1.584 0 0 1-1.2-1.5v-9.15l-14.748 5.97a1.428 1.428 0 0 1-.6.2h-.3l-42.5-10.2a1.584 1.584 0 0 1-1.2-1.5v-24.5l-2.2-.5a1.687 1.687 0 0 1-1-1.5 2.522 2.522 0 0 1 0-.5v-4.292a1.712 1.712 0 0 1 0-.408 1.508 1.508 0 0 1 1-1.4l29.2-9.8a1.253 1.253 0 0 1 .4-.075 1.258 1.258 0 0 1 .4.075l10.374 2.186A16.854 16.854 0 0 1 570.368 438a16.98 16.98 0 0 1 16.861 15.837l4.282.9a1.515 1.515 0 0 1 1.2 1.5v4.8a1.692 1.692 0 0 1-.9 1.4l-2 .9v.894l13.748-4.614a1.228 1.228 0 0 1 .4-.075 1.229 1.229 0 0 1 .4.075l10.374 2.187a16.854 16.854 0 0 1 14.98-9.122 16.979 16.979 0 0 1 16.861 15.839l3.828.806.355-.105a1.71 1.71 0 0 1 .409-.05 1.588 1.588 0 0 1 1.491 1.051 1.588 1.588 0 0 1-.6 1.686v3.814a1.69 1.69 0 0 1-.9 1.4l-2 .9v.878l13.756-4.619a1.253 1.253 0 0 1 .4-.075 1.258 1.258 0 0 1 .4.075l9.613 2.022a16.8 16.8 0 0 1 14.3-7.944 17.025 17.025 0 0 1 16.714 14.467l5.973 1.255a1.515 1.515 0 0 1 1.2 1.5v4.8a1.689 1.689 0 0 1-.9 1.4l-2 .9v23.4a1.562 1.562 0 0 1-.9 1.4l-27 11a1.967 1.967 0 0 1-.7.1zm.7-27.81v24.61l13.138-5.389a1.411 1.411 0 0 1-.138-.607v-18.042a16.766 16.766 0 0 1-5.783 1.021 16.674 16.674 0 0 1-7.172-1.6zm-12.3 22.183l9.3 2.071v-24.27l-9.3-1.9zm-12.8-2.85l9.8 2.182v-24.041l-9.8-2zm-10.5-2.123a1.464 1.464 0 0 1-.065.438l2.865 3.562v-22.4l-2.8-2.468zm57.194-23.681a17.118 17.118 0 0 1-5.594 5.587v18.927l9.1-3.733v-21.831zm-63.094 21.581l2.9.69v-22.1l-.1-.088a1.548 1.548 0 0 1-.465-1l-2.335-.477zm11.3-18.1a1.6 1.6 0 0 1 .5 1.1v11.906l1.5.355v-14.261l-4.1-.9zm-26.523-12.215l-2.43.746v24.38l14.4-5.873v-10.5l-2.5-.8a1.506 1.506 0 0 1-1-1.4v-5.617a17.08 17.08 0 0 1-2.444.176 16.745 16.745 0 0 1-6.026-1.112zm-27.529 19.676l22.1 5.254v-24.028l-22.1-4.627zm-10.9-2.592l7.9 1.878v-23.315l-7.9-1.654zm-5.6-1.331l2.6.618v-23.006l-2.6-.545zm55.952-12.214l39.923 8.128a17.054 17.054 0 0 1-1.31-1.518l-38.614-8.078zm-71.271-18.22l-2.429.746v24.381l14.4-5.873v-10.5l-2.5-.8a1.507 1.507 0 0 1-1-1.4v-5.616a16.971 16.971 0 0 1-2.443.176 16.742 16.742 0 0 1-6.028-1.118zm-27.529 19.676l22.1 5.254v-24.028l-22.1-4.627zm145.9-8.158a6.921 6.921 0 0 0-3.6 3.1 6.075 6.075 0 0 0-.6 1.9 4.112 4.112 0 0 0 .1 1 .1.1 0 0 1-.1.1v.6a1.69 1.69 0 0 0 .1.7 6.926 6.926 0 0 0 .5 1.3 8.7 8.7 0 0 0 .587.98 4.427 4.427 0 0 0 .613.719 1.213 1.213 0 0 0 .5.5 5.693 5.693 0 0 0 1.3.8 8.837 8.837 0 0 0 1.5.5 1.95 1.95 0 0 1 .35.05 1.949 1.949 0 0 0 .35.05h1.3a8.538 8.538 0 0 0 1.7-.4 6.887 6.887 0 0 0 3-2.3.551.551 0 0 0 .1-.15.525.525 0 0 1 .1-.15 10.937 10.937 0 0 1-1.8-.1 6.769 6.769 0 0 1-3.1-1.4 6.718 6.718 0 0 1-2.4-4 4.582 4.582 0 0 1-.1-2 7.424 7.424 0 0 1 .4-1.6l.078-.143a.657.657 0 0 0 .121-.356c-.299.101-.599.201-.999.301zm-10.555 9.793a16.94 16.94 0 0 1-1.423-6.837 16.985 16.985 0 0 1 1.2-6.3l-8.522-1.778-14.471 4.841a1.435 1.435 0 0 1-.781.6l-8.478 2.65zm31.933-2.946q-.163.7-.383 1.375l4.5-1.353.206-.093v-1.098zm-178.178-1.28l7.9 1.878v-23.316l-7.9-1.653zm160.2-11.767a6.346 6.346 0 0 0-2.2 2.1h1a5.041 5.041 0 0 1 1.7.3 7.373 7.373 0 0 1 3.3 2.2 6.734 6.734 0 0 1 1.5 3.9 4.906 4.906 0 0 0 .1 1.2 6.364 6.364 0 0 1-.6 1.8v.1a3.034 3.034 0 0 0 1.189-.314l.211-.086a6.633 6.633 0 0 0 3.2-3.2 5.9 5.9 0 0 0 .5-1.9v-1.4a1.708 1.708 0 0 0-.1-.7 5.818 5.818 0 0 0-.5-1.4 8.251 8.251 0 0 0-.8-1.2l-.6-.6a1.384 1.384 0 0 0-.2-.149 1.371 1.371 0 0 1-.2-.15 3.615 3.615 0 0 0-1.2-.8 8.841 8.841 0 0 0-1.5-.5 3.705 3.705 0 0 1-.5-.049 3.75 3.75 0 0 0-.5-.05h-.8a7.537 7.537 0 0 0-3 .899zm-165.8 10.436l2.6.618v-23.006l-2.6-.544zm56.048-12.07l41.9 8.736v-1.124q-.305-.283-.6-.581l-41.3-8.6zm67.173 4.9a17.106 17.106 0 0 1-1.459 1.8l3.885-1.3v-1.247zm-18.739-12.746a6.917 6.917 0 0 0-3.6 3.1 6.074 6.074 0 0 0-.6 1.9 4.137 4.137 0 0 0 .1 1 .1.1 0 0 1-.1.1v.6a1.706 1.706 0 0 0 .1.7 6.949 6.949 0 0 0 .5 1.3 8.534 8.534 0 0 0 .6 1 4.339 4.339 0 0 0 .6.7 1.208 1.208 0 0 0 .5.5 5.73 5.73 0 0 0 1.3.8 8.864 8.864 0 0 0 1.5.5 2.024 2.024 0 0 1 .35.049 1.952 1.952 0 0 0 .35.05h1.3a8.5 8.5 0 0 0 1.7-.4 6.894 6.894 0 0 0 3-2.3.518.518 0 0 0 .1-.15.535.535 0 0 1 .1-.149 10.952 10.952 0 0 1-1.8-.1 6.773 6.773 0 0 1-3.1-1.4 6.715 6.715 0 0 1-2.4-4 4.6 4.6 0 0 1-.1-2 7.483 7.483 0 0 1 .4-1.6l.078-.142a.666.666 0 0 0 .121-.358c-.299.101-.6.2-.998.301zm-9.847 11.225a17.081 17.081 0 0 1-2.131-8.27 17.067 17.067 0 0 1 .762-5.062l-9.519-2-14.5 4.866a1.44 1.44 0 0 1-.753.553l-8.505 2.658zm31.175-4.175a17.014 17.014 0 0 1-.591 1.909l3.054-.94.275-.123v-1.663zm-17.928-13.25a6.328 6.328 0 0 0-2.2 2.1h1a5.065 5.065 0 0 1 1.7.3 7.379 7.379 0 0 1 3.3 2.2 6.728 6.728 0 0 1 1.5 3.9 4.906 4.906 0 0 0 .1 1.2 6.377 6.377 0 0 1-.6 1.8v.1a3.032 3.032 0 0 0 1.183-.311l.218-.089a6.64 6.64 0 0 0 3.2-3.2 5.9 5.9 0 0 0 .5-1.9v-1.4a1.706 1.706 0 0 0-.1-.7 5.816 5.816 0 0 0-.5-1.4 8.292 8.292 0 0 0-.8-1.2l-.6-.6a1.361 1.361 0 0 0-.2-.149 1.452 1.452 0 0 1-.2-.151 3.579 3.579 0 0 0-1.2-.8 8.94 8.94 0 0 0-1.5-.5 3.87 3.87 0 0 1-.5-.049 3.736 3.736 0 0 0-.5-.05h-.8a7.537 7.537 0 0 0-3 .9zm-111.182-.635l41.9 8.736v-1.129q-.305-.283-.6-.581l-41.3-8.6zm67.173 4.9a17.069 17.069 0 0 1-1.482 1.83l3.908-1.312v-1.264zm-18.739-12.747a6.919 6.919 0 0 0-3.6 3.1 6.058 6.058 0 0 0-.6 1.9 4.145 4.145 0 0 0 .1 1 .1.1 0 0 1-.1.1v.6a1.7 1.7 0 0 0 .1.7 6.852 6.852 0 0 0 .5 1.3 8.776 8.776 0 0 0 .6 1 4.441 4.441 0 0 0 .594.7 1.24 1.24 0 0 0 .506.5 5.651 5.651 0 0 0 1.3.8 8.812 8.812 0 0 0 1.5.5 1.949 1.949 0 0 1 .35.05 1.942 1.942 0 0 0 .35.049h1.3a8.441 8.441 0 0 0 1.7-.4 6.9 6.9 0 0 0 3-2.3.516.516 0 0 0 .1-.149.522.522 0 0 1 .1-.151 10.941 10.941 0 0 1-1.8-.1 6.763 6.763 0 0 1-3.1-1.4 6.718 6.718 0 0 1-2.4-4 4.609 4.609 0 0 1-.1-2 7.411 7.411 0 0 1 .4-1.6l.078-.143a.657.657 0 0 0 .121-.356c-.299.102-.6.201-.998.301zm-44.674 3.94l34.828 7.292a17.091 17.091 0 0 1-2.131-8.27 17.077 17.077 0 0 1 .762-5.062l-9.519-2zm65.732 4.091q-.147.474-.32.935l3.054-.94.274-.123v-.663zm-17.657-14.225a6.34 6.34 0 0 0-2.2 2.1h1a5.069 5.069 0 0 1 1.7.3 7.374 7.374 0 0 1 3.3 2.2 6.733 6.733 0 0 1 1.5 3.9 4.9 4.9 0 0 0 .1 1.2 6.381 6.381 0 0 1-.6 1.8v.1a3.03 3.03 0 0 0 1.185-.312l.215-.087a6.638 6.638 0 0 0 3.2-3.2 5.9 5.9 0 0 0 .5-1.9v-1.4a1.7 1.7 0 0 0-.1-.7 5.828 5.828 0 0 0-.5-1.4 8.37 8.37 0 0 0-.8-1.2l-.2-.2-.4-.4a1.422 1.422 0 0 0-.2-.149 1.328 1.328 0 0 1-.2-.15 3.615 3.615 0 0 0-1.2-.8 9.029 9.029 0 0 0-1.5-.5 3.727 3.727 0 0 1-.5-.049 3.738 3.738 0 0 0-.5-.05h-.8a7.554 7.554 0 0 0-3 .892zm-32.335 72.634l-5.3-2.1 5.3-2.2 2.3-5.4 1.9 5.4 5.7 2.2-5.7 2.1-1.9 5.8zm24.6-4.2l-3.5-1.4 3.5-1.5 1.6-3.6 1.2 3.6 3.8 1.5-3.8 1.4-1.2 3.9zm-37.4-8.2l-3.5-1.4 3.5-1.5 1.5-3.6 1.3 3.6 3.8 1.4-3.8 1.4-1.3 3.9zm194.5-3.7l-3.6-1.4 3.6-1.5 1.5-3.6 1.3 3.6 3.8 1.5-3.8 1.4-1.3 3.9zm-15.5-40.4l-3.6-1.4 3.6-1.5 1.5-3.6 1.3 3.6 3.8 1.5-3.8 1.4-1.3 3.9zm-43-3.2l-5.3-2 5.3-2.3 2.3-5.4 2 5.4 5.6 2.2-5.7 2.1-1.9 5.9zm20.1-14.2l-3.5-1.4 3.5-1.5 1.6-3.6 1.2 3.6 3.8 1.5-3.8 1.4-1.3 3.9z"/>
    </symbol>

    <symbol id="symbol-arrow-forward" viewBox="0 0 24 24">
        <path
            d="M12 4l-1.41 1.41L16.17 11H4v2h12.17l-5.58 5.59L12 20l8-8z"/>
    </symbol>

    <symbol id="symbol-phone" viewBox="0 0 24 24">
        <path fill="none" d="M0 0h24v24H0z"/>
        <path d="M6.62 10.79c1.44 2.83 3.76 5.14 6.59 6.59l2.2-2.2c.27-.27.67-.36 1.02-.24 1.12.37 2.33.57 3.57.57.55 0 1 .45 1 1V20c0 .55-.45 1-1 1-9.39 0-17-7.61-17-17 0-.55.45-1 1-1h3.5c.55 0 1 .45 1 1 0 1.25.2 2.45.57 3.57.11.35.03.74-.25 1.02l-2.2 2.2z"/>
    </symbol>

    <symbol id="symbol-burger" viewBox="0 0 24 24">
        <path fill="none" d="M0 0h24v24H0z"/>
        <path d="M3 18h18v-2H3v2zm0-5h18v-2H3v2zm0-7v2h18V6H3z"/>
    </symbol>

    <symbol id="symbol-projects" viewBox="0 0 20 20">
        <path d="M4.872.16H.762A.762.762 0 0 0 0 .924v4.11c0 .42.34.762.762.762h4.11c.42 0 .761-.342.761-.762V.923a.761.761 0 0 0-.761-.762zM11.953.16h-4.11c-.42 0-.761.342-.761.763v4.11c0 .42.341.762.761.762h4.11a.762.762 0 0 0 .762-.762V.923a.762.762 0 0 0-.762-.762zM19.196.16h-4.11a.762.762 0 0 0-.761.763v4.11c0 .42.34.762.762.762h4.11c.42 0 .76-.342.76-.762V.923c0-.42-.34-.762-.76-.762zM4.872 7.082H.762A.762.762 0 0 0 0 7.843v4.11c0 .42.34.762.762.762h4.11c.42 0 .761-.341.761-.762v-4.11c0-.42-.34-.761-.761-.761zM11.953 7.082h-4.11c-.42 0-.761.34-.761.761v4.11c0 .42.341.762.761.762h4.11c.422 0 .762-.341.762-.762v-4.11c0-.42-.34-.761-.762-.761zM19.196 7.082h-4.11a.761.761 0 0 0-.761.761v4.11c0 .42.34.762.762.762h4.11c.42 0 .76-.341.76-.762v-4.11c0-.42-.34-.761-.76-.761zM4.872 14.163H.762a.762.762 0 0 0-.762.762v4.11c0 .42.34.762.762.762h4.11c.42 0 .761-.342.761-.762v-4.11c0-.42-.34-.762-.761-.762zM11.953 14.163h-4.11a.762.762 0 0 0-.761.762v4.11c0 .42.341.762.761.762h4.11a.762.762 0 0 0 .762-.762v-4.11c0-.42-.34-.762-.762-.762zM19.196 14.163h-4.11a.762.762 0 0 0-.761.762v4.11c0 .42.34.762.762.762h4.11c.42 0 .76-.342.76-.762v-4.11c0-.42-.34-.762-.76-.762z"/>
    </symbol>

    <symbol id="symbol-logo-market" viewBox="293.999 221.999 1386.421 489.41">
        <g transform="translate(294 222)">
            <circle fill="#ff9001" cx="35.01" cy="35.01" r="35.01" transform="translate(1316.4 47.49)"/>
            <path fill="#323f4c" d="M1252.52 489.41V373.42h14.73v13.46c6.9-9.45 17.79-14.26 30.28-14.26 24.881 0 42.99 17.311 42.99 43.26 0 26.12-18.1 43.421-42.95 43.421-12.01 0-22.59-4.6-29.641-13.8v43.91zm15.26-73.53c0 17.941 12.34 29.96 28.52 29.96s28.679-11.85 28.679-29.96c0-17.94-12.34-29.8-28.679-29.8s-28.52 11.86-28.52 29.8zm-345.95 62.17v-19.7h-70.99v19.7h-14.57v-33.16h4.5c12.18-.641 14.26-21.31 15.38-42.791l1.29-28.68h65.86v71.471h12.93v33.16zm-51.53-74.831c-.71 17.63-2.309 34.931-9.98 41.671h47.59v-58.01h-36.8zM443.53 458.19l.95-12.99a17.8 17.8 0 0 0 3.85.48c13.8 0 14.41-20.83 15.539-40.85l1.44-31.41h65.22v84.93H515.15v-71.47h-36.53l-.969 18.91c-1.44 29.96-5.45 53.84-24.671 53.84a35.976 35.976 0 0 1-9.45-1.44zM247.4 403.06c0-35.09 14.26-54.15 43.591-60.57l38.769-8.68 2.3 14.1-35.78 7.75c-22.119 4.8-32.539 15.7-34.14 37.81 7.21-10.89 19.23-17.14 33.49-17.14 24.04.04 40.86 16.969 40.86 41.31 0 24.989-17.94 41.98-43.9 41.98-29.01 0-45.19-20.83-45.19-56.56zm17.47 15.07c0 16.83 11.7 28.68 28.04 28.68s27.88-11.86 27.88-28.68-11.21-28.04-27.88-28.04-28.04 11.21-28.04 28.04zm683.59-2.23c0-25.32 18.1-43.269 42.56-43.269s41.99 17.629 41.99 43.709c.031 1.3-.17 3.22-.3 4.67h-68.88c1.921 14.89 13.94 24.83 30.77 24.83 9.94 0 18.26-3.37 24.511-10.26l8.5 9.94c-7.69 8.97-19.39 13.8-33.49 13.8-27.401 0-45.661-18.1-45.661-43.42zm15.37-5.95h54.48c-1.58-14.26-12.36-24.38-27.27-24.38-14.73 0-25.63 9.97-27.21 24.38zM350.6 415.9c0-25.32 18.1-43.269 42.62-43.269s41.98 17.629 41.98 43.709c0 1.3-.17 3.22-.33 4.67h-68.89c1.92 14.89 13.94 24.83 30.77 24.83 9.93 0 18.26-3.37 24.51-10.26l8.49 9.94c-7.68 8.97-19.38 13.8-33.48 13.8-27.41 0-45.67-18.1-45.67-43.42zm15.38-5.95h54.47c-1.6-14.26-12.33-24.38-27.24-24.38s-25.63 9.97-27.23 24.38zM143.9 415.9c0-25.32 18.1-43.269 42.611-43.269S228.5 390.26 228.5 416.34c0 1.3-.16 3.22-.32 4.67h-68.91c1.92 14.89 13.94 24.83 30.77 24.83 9.94 0 18.26-3.37 24.52-10.26l8.491 9.94c-7.691 8.97-19.391 13.8-33.49 13.8-27.401 0-45.661-18.1-45.661-43.42zm15.37-5.95h54.48c-1.6-14.26-12.34-24.38-27.249-24.38-14.721 0-25.631 9.97-27.231 24.38zm982.72 5.93c0-25.3 18.75-43.27 44.22-43.27s44.06 17.951 44.06 43.27-18.59 43.42-44.06 43.42-44.22-18.1-44.22-43.42zm15.55 0c0 18.1 12.34 29.96 28.679 29.96s28.52-11.85 28.52-29.96-12.18-29.8-28.52-29.8-28.679 11.7-28.679 29.8zM597.2 458.51l-36.8-.16v-84.93h15.38v28.68l23.88.16c21.57.17 33.11 10.25 33.11 27.73 0 18.258-12.623 28.522-35.047 28.522-.174 0-.347 0-.523-.002zm-21.48-11.84l20.191.16c13.939.14 21.15-5.63 21.15-17.01 0-11.21-7.051-16.02-21.15-16.18l-20.191-.32zm542.71 11.68l-28.52-35.9h-17.62v35.9h-15.39v-84.93h15.39v35.9h17.94l27.6-35.9h16.5l-32.2 40.871 34.45 44.059zm-356.829 0v-61.86l-51.951 61.86h-14.07v-84.93h15.38v61.86l52.08-61.861h13.94v84.93zm-657.6 0l-.16-81.66-40.58 68.04h-7.34L15.38 377.1v81.25H0V346.19h13.13l46.79 78.83 46.16-78.83h13.13l.16 112.16zm1197.618-228.02a19.45 19.45 0 1 1 19.451 19.45 19.451 19.451 0 0 1-19.451-19.45zm-54.469 0a19.45 19.45 0 1 1 19.45 19.45 19.45 19.45 0 0 1-19.45-19.45zm-453.63 18.45q-60.554 0-60.56-50.81v-71.34q0-28.184 17.581-43.85T797 67.12q28.875 0 45.06 15.49t16.179 43v47.68L758 178.48v18.1q0 29.58 34.8 29.58 21.57 0 47.33-14.27l9.39 20.53q-26.764 16.35-55.947 16.36zM768.56 99.49Q757.955 108.879 758 127v27.84l74.77-3.84v-26.8q0-18.434-11.479-26.27-11.453-7.83-26.742-7.83h-.059q-15.314 0-25.93 9.39zM192.1 248.6V133.41q0-29.925-19.48-36.54a46.728 46.728 0 0 0-12.36-2.091q-5 0-11.31.35T130.86 100l-10.79 5.22a51.608 51.608 0 0 1 4.521 21.93V248.6h-25V133.76q0-16.351-7.66-26.1-9.8-12.871-29.281-12.881a74.142 74.142 0 0 0-37.589 10.44V248.6H0V74.25h23.67L24 83a87.033 87.033 0 0 1 43.35-11.181q23.49 0 39.489 16.35 29.581-16.7 56-16.7 25.064 0 39.669 16t14.622 40.711V248.6zm881.49-19.83q-16.529-19.305-16.53-48.2v-45.94q0-33.06 16.88-50.63t47.85-17.581q31 0 48 18.27t17.07 49.94v45.94q0 29.234-16 48.37t-48.37 19.141q-32.369 0-48.9-19.31zm8.52-94.14v49.42q0 18.8 11 29.75t29.41 11q18.436 0 28.88-11t10.4-29.75v-49.42q0-44.19-39.32-44.19-40.38 0-40.37 44.19zm-803.52 94.14q-16.531-19.305-16.53-48.2v-45.94q0-33.06 16.88-50.63t47.85-17.58q31.005 0 48 18.27t17.07 49.94v45.94q0 29.234-16 48.37t-48.37 19.14q-32.37 0-48.9-19.31zm8.52-94.14v49.42q0 18.8 11 29.75t29.41 11q18.436 0 28.88-11t10.4-29.75v-49.42q0-44.19-39.32-44.19-40.38 0-40.37 44.19zm603.78 109.01V0h25.05v75.86q16.351-9.389 37.24-9.39t36.54 6.61q29.565 13.576 29.58 50.11V189q0 34.456-27.15 48.38-20.535 10.44-45.93 10.44a403.3 403.3 0 0 1-55.33-4.18zm47.32-151.79a74.942 74.942 0 0 0-22.271 8.35V222q17.4 2.445 26.28 2.44c5.91 0 9.221-.11 9.911-.35q17.4 0 29.93-9.05t12.53-25.73V127q0-16.709-9.049-26.1-10.1-10.784-29.93-10.789zM642.518 247.82q-30.06 0-47.1-14.27T577.69 198.4l24.36-1q1.38 12.884 12.87 20t26.45 7.13q15 0 25.93-6.78t11-19.49q0-12.7-9.4-20.18a71.647 71.647 0 0 0-23-11.84q-13.559-4.335-27.31-9.22a63.974 63.974 0 0 1-24.19-15.31 39.351 39.351 0 0 1-12.88-29.75q0-17.58 14.1-32.719t45.76-15.13a80.4 80.4 0 0 1 20.88 2.61q9.735 2.61 13.919 5l4.181 2.44-8 21.92q-11.146-8.685-29.23-8.7t-27 6.791q-8.88 6.78-8.87 17.22 0 11.49 11.129 18.1a124.254 124.254 0 0 0 25.06 11.14q13.905 4.514 27.66 10.09a57.2 57.2 0 0 1 23.32 17.4Q704 180 704 199.45t-15.66 33.93q-15.66 14.43-45.76 14.44zm-155.58 0q-30.09 0-47.087-14.27-17.027-14.264-17.721-35.15l24.359-1q1.381 12.884 12.88 20a49.262 49.262 0 0 0 26.44 7.13q15 0 25.93-6.78t11-19.49q0-12.7-9.391-20.18a71.735 71.735 0 0 0-23-11.84Q476.775 161.875 463 157a63.981 63.981 0 0 1-24.19-15.31A39.369 39.369 0 0 1 426 111.93q0-17.58 14.089-32.72t45.761-15.13a80.477 80.477 0 0 1 20.88 2.61q9.75 2.611 13.919 5l4.18 2.44-8 21.92q-11.146-8.686-29.24-8.7t-27 6.79q-8.865 6.781-8.87 17.221 0 11.49 11.14 18.1a124.36 124.36 0 0 0 25 11.14q13.92 4.514 27.67 10.09a57.161 57.161 0 0 1 23.31 17.4q9.57 11.835 9.571 31.32t-15.66 33.929q-15.615 14.475-45.75 14.48zm759.582-78.75q-16.531-19.305-16.53-48.2v-12.79l25.06 11.381v4.87q0 18.75 11 29.749 10.965 11 29.41 11t28.88-11a34.15 34.15 0 0 0 2.07-2.389l22.659 10.27a66.165 66.165 0 0 1-5.28 7.28q-16.005 19.14-48.37 19.14t-48.899-19.311z"/>
        </g>
    </symbol>


</svg>
