<?xml version="1.0" standalone="no"?>
<!DOCTYPE svg PUBLIC "-//W3C//DTD SVG 20010904//EN"
 "http://www.w3.org/TR/2001/REC-SVG-20010904/DTD/svg10.dtd">
<svg version="1.0" xmlns="http://www.w3.org/2000/svg"
 width="675.000000pt" height="675.000000pt" viewBox="0 0 675.000000 675.000000"
 preserveAspectRatio="xMidYMid meet">
<metadata>
Created by potrace 1.11, written by Peter Selinger 2001-2013
</metadata>
<g transform="translate(0.000000,675.000000) scale(0.100000,-0.100000)"
fill="#000000" stroke="none">
<path d="M3628 6294 c-2 -1 -39 -5 -83 -9 -44 -4 -82 -8 -85 -10 -3 -2 -21 -6
-40 -9 -19 -3 -50 -10 -67 -15 -18 -5 -33 -8 -33 -6 0 2 -53 -14 -117 -36
-397 -136 -734 -402 -967 -761 -31 -47 -56 -88 -56 -90 0 -1 69 -3 153 -3 137
-1 200 -5 292 -20 212 -36 436 -115 615 -216 71 -40 219 -136 230 -148 3 -4
30 -26 60 -51 271 -220 515 -574 635 -920 32 -92 85 -288 90 -330 1 -14 12
-88 21 -140 6 -39 18 -238 18 -305 0 -141 -25 -345 -58 -487 -18 -78 -83 -282
-101 -318 -7 -14 -15 -35 -19 -47 -7 -21 -7 -21 56 -7 100 23 235 72 342 125
90 45 260 150 316 195 294 240 471 473 616 811 43 101 104 295 118 373 36 204
52 528 33 680 -4 36 -10 83 -13 104 -2 21 -6 42 -8 45 -3 4 -7 26 -11 51 -9
63 -71 260 -112 360 -230 559 -706 991 -1246 1129 -62 16 -130 32 -152 35 -22
3 -53 9 -68 12 -27 6 -354 13 -359 8z"/>
<path d="M2578 4395 c-3 -3 -16 -8 -28 -10 -13 -2 -46 -12 -74 -22 -28 -9 -53
-18 -56 -18 -7 -2 -38 -14 -95 -37 -127 -51 -352 -188 -460 -279 -78 -67 -218
-211 -271 -281 -26 -34 -51 -65 -54 -68 -18 -14 -138 -218 -181 -306 -74 -152
-138 -341 -163 -479 -11 -59 -26 -155 -34 -212 -9 -76 -9 -433 1 -503 35 -253
99 -463 204 -674 38 -76 126 -225 154 -260 4 -6 38 -49 75 -96 164 -211 394
-396 639 -515 90 -44 243 -102 315 -120 66 -16 175 -37 220 -42 76 -9 333 -10
400 -1 30 4 75 10 100 13 84 12 275 64 365 100 133 54 322 157 405 222 156
121 274 237 378 368 46 59 152 216 152 225 0 4 -60 6 -132 4 -138 -2 -261 8
-372 31 -203 41 -384 110 -591 224 -104 57 -264 183 -392 310 -293 287 -506
695 -583 1111 -6 36 -13 74 -16 85 -26 119 -25 502 2 685 21 145 72 337 123
463 17 43 31 80 31 83 0 6 -56 5 -62 -1z"/>
</g>
</svg>
