<?xml version="1.0" standalone="no"?>
<!DOCTYPE svg PUBLIC "-//W3C//DTD SVG 20010904//EN"
 "http://www.w3.org/TR/2001/REC-SVG-20010904/DTD/svg10.dtd">
<svg version="1.0" xmlns="http://www.w3.org/2000/svg"
 width="260.000000pt" height="260.000000pt" viewBox="0 0 260.000000 260.000000"
 preserveAspectRatio="xMidYMid meet">
<metadata>
Created by potrace 1.11, written by Peter Selinger 2001-2013
</metadata>
<g transform="translate(0.000000,260.000000) scale(0.100000,-0.100000)"
fill="#000000" stroke="none">
<path d="M1295 2436 c-185 -52 -315 -138 -422 -280 l-45 -61 93 -6 c226 -15
428 -120 569 -296 124 -154 179 -303 187 -509 6 -139 -7 -231 -47 -337 l-19
-48 32 6 c53 11 168 65 232 108 183 123 316 354 331 576 5 69 1 109 -19 206
-31 151 -55 214 -119 312 -61 95 -94 130 -178 193 -77 56 -130 84 -225 117
-88 31 -289 41 -370 19z"/>
<path d="M940 1691 c-80 -25 -186 -84 -256 -141 -110 -89 -220 -260 -261 -410
-22 -82 -22 -299 1 -410 51 -245 255 -471 506 -562 58 -20 82 -23 215 -22 135
1 158 4 230 28 104 35 200 93 280 168 66 61 135 147 135 167 0 7 -29 11 -83
11 -297 0 -584 200 -705 493 -79 190 -84 453 -12 636 28 72 32 69 -50 42z"/>
</g>
</svg>
