<svg xmlns="http://www.w3.org/2000/svg" style="display:none; position:absolute; width:0; height:0;">

    <symbol id="symbol-rouble-in-circles" viewBox="1120 626 83 83">
        <path d="M1120 667.5a41.525 41.525 0 0 1 41.5-41.5 41.525 41.525 0 0 1 41.5 41.5 41.525 41.525 0 0 1-41.5 41.5 41.526 41.526 0 0 1-41.5-41.5zm3 0a38.582 38.582 0 0 0 38.5 38.5 38.581 38.581 0 0 0 38.5-38.5 38.581 38.581 0 0 0-38.5-38.5 38.581 38.581 0 0 0-38.5 38.5zm3 0a35.508 35.508 0 0 1 35.5-35.5 35.508 35.508 0 0 1 35.5 35.5 35.507 35.507 0 0 1-35.5 35.5 35.507 35.507 0 0 1-35.5-35.5zm3 0a32.563 32.563 0 0 0 32.5 32.5 32.426 32.426 0 0 0 23.961-10.581.752.752 0 0 1-.161-.119l-10.7-8.6a1.551 1.551 0 0 1-.2-2.1 1.551 1.551 0 0 1 2.1-.2l10.7 8.6a1.324 1.324 0 0 1 .155.153 32.662 32.662 0 0 0 2.658-4.085l-5.413-4.369a1.549 1.549 0 0 1-.2-2.1 1.549 1.549 0 0 1 2.1-.2l4.857 3.92A32.266 32.266 0 0 0 1194 667.5a32.563 32.563 0 0 0-32.5-32.5 32.487 32.487 0 0 0-26.078 13.141l9.778 7.858a1.549 1.549 0 0 1 .2 2.1 2.074 2.074 0 0 1-1.2.5 1.4 1.4 0 0 1-.9-.3l-9.554-7.679a32.417 32.417 0 0 0-2.368 4.689 1.292 1.292 0 0 1 .122.09l5.7 4.6a1.549 1.549 0 0 1 .2 2.1 2.078 2.078 0 0 1-1.2.5 1.4 1.4 0 0 1-.9-.3l-4.968-4.009a32.332 32.332 0 0 0-1.332 9.21zm23.3 17.4v-6h-4.8v-2.8h4.8v-24.2h12.1c8.1 0 13.1 3.9 13.1 10.7 0 6.9-5 10.7-13.2 10.7h-8.7v2.8h10.4v2.8h-10.3v6zm3.4-14.4h8.7c6.3 0 9.7-2.8 9.7-7.8s-3.5-7.8-9.7-7.8h-8.7z"/>
    </symbol>

    <symbol id="symbol-snow" viewBox="1022.659 511 79.115 82">
        <path d="M1060.76 591.5v-10.9l-9.5 9.5a1.172 1.172 0 0 1-1 .4 1.492 1.492 0 0 1-1.1-.4 1.483 1.483 0 0 1-.449-1.05 1.483 1.483 0 0 1 .449-1.05l11-11a1.54 1.54 0 0 1 .6-.376v-12.212a12.5 12.5 0 0 1-8.5-4.908l-10.578 6.108a1.515 1.515 0 0 1-.026.708l-4.027 15.026a1.355 1.355 0 0 1-1.349 1.022 1.7 1.7 0 0 0-.229.024.842.842 0 0 1-.141.015l-.1-.013a1.483 1.483 0 0 1-.914-.683 1.485 1.485 0 0 1-.136-1.135l3.478-12.978-9.44 5.45a1.463 1.463 0 0 1-.706.176 1.431 1.431 0 0 1-1.343-.724 1.542 1.542 0 0 1 .549-2.05l9.44-5.45-12.84-3.441a1.482 1.482 0 0 1-.915-.685 1.483 1.483 0 0 1-.135-1.134 1.436 1.436 0 0 1 1.407-1.105 1.58 1.58 0 0 1 .411.055l15.026 4.027a1.529 1.529 0 0 1 .544.264l10.522-6.075a12.449 12.449 0 0 1-1-4.906 12.451 12.451 0 0 1 1-4.907l-10.576-6.107a1.531 1.531 0 0 1-.626.332l-15.026 4.026a.1.1 0 0 1-.1.05.824.824 0 0 1-.1-.01c-.045-.005-.1-.013-.164-.017a1.5 1.5 0 0 1-1.459-1.073 1.482 1.482 0 0 1 .136-1.134 1.48 1.48 0 0 1 .914-.685l12.977-3.478-9.44-5.45a1.509 1.509 0 0 1-.685-.915 1.506 1.506 0 0 1 .136-1.135 1.542 1.542 0 0 1 1.325-.738 1.448 1.448 0 0 1 .724.19l9.353 5.4-3.44-12.841a1.485 1.485 0 0 1 .134-1.133 1.489 1.489 0 0 1 .915-.685 1.6 1.6 0 0 1 .414-.056 1.436 1.436 0 0 1 1.4 1.105l4.026 15.026a1.528 1.528 0 0 1 .043.6l10.611 6.127a12.5 12.5 0 0 1 8.5-4.908v-12.15a1.309 1.309 0 0 1-.6-.339l-11-11a1.482 1.482 0 0 1-.45-1.05 1.48 1.48 0 0 1 .45-1.049 1.483 1.483 0 0 1 1.049-.45 1.485 1.485 0 0 1 1.05.45l9.5 9.5v-11a1.539 1.539 0 0 1 1.5-1.5 1.54 1.54 0 0 1 1.5 1.5v10.9l9.4-9.4a1.487 1.487 0 0 1 1.05-.45 1.485 1.485 0 0 1 1.05.45 1.452 1.452 0 0 1 0 2.1l-11 11a.864.864 0 0 1-.5.338v12.152a12.5 12.5 0 0 1 8.5 4.907l10.61-6.126a1.559 1.559 0 0 1 .044-.6l4.027-15.026a1.435 1.435 0 0 1 1.406-1.106 1.6 1.6 0 0 1 .413.056 1.488 1.488 0 0 1 .914.685 1.491 1.491 0 0 1 .136 1.134l-3.442 12.84 9.354-5.4a1.447 1.447 0 0 1 .724-.19 1.543 1.543 0 0 1 1.326.74 1.539 1.539 0 0 1-.55 2.048l-9.526 5.5 12.977 3.478a1.484 1.484 0 0 1 .916.685 1.482 1.482 0 0 1 .134 1.134 1.354 1.354 0 0 1-1.348 1.022 1.731 1.731 0 0 0-.23.024.832.832 0 0 1-.14.015l-15.125-4.039a1.539 1.539 0 0 1-.626-.331l-10.489 6.056a12.45 12.45 0 0 1 1 4.907 12.449 12.449 0 0 1-1 4.907l10.521 6.074a1.591 1.591 0 0 1 .544-.264l15.026-4.026a1.634 1.634 0 0 1 .413-.055 1.435 1.435 0 0 1 1.406 1.106 1.48 1.48 0 0 1-.136 1.134 1.479 1.479 0 0 1-.914.683L1087.778 565l9.44 5.45a1.5 1.5 0 0 1 .684.915 1.5 1.5 0 0 1-.135 1.133 1.433 1.433 0 0 1-1.344.726 1.862 1.862 0 0 1-.706-.176l-9.527-5.5 3.479 12.979a1.453 1.453 0 0 1-1.05 1.818.093.093 0 0 1-.094.049.809.809 0 0 1-.1-.009 2.88 2.88 0 0 0-.165-.018 1.494 1.494 0 0 1-1.459-1.073l-4.027-15.026a1.527 1.527 0 0 1-.026-.708l-10.492-6.057a12.5 12.5 0 0 1-8.5 4.907v12.25a1.563 1.563 0 0 1 .5.338l11 11a1.455 1.455 0 0 1 0 2.1 1.172 1.172 0 0 1-1 .4 1.5 1.5 0 0 1-1.1-.4l-9.4-9.4v10.8a1.466 1.466 0 0 1-1.5 1.5 1.539 1.539 0 0 1-1.496-1.498zm-8-39.5a9.561 9.561 0 0 0 9.5 9.5 9.561 9.561 0 0 0 9.5-9.5 9.561 9.561 0 0 0-9.5-9.5 9.561 9.561 0 0 0-9.5 9.5z"/>
    </symbol>

    <symbol id="symbol-orbit" viewBox="1085 528.001 83 83">
        <path d="M1085 569.501a41.242 41.242 0 0 1 6.447-22.21 7 7 0 0 1-1.447-4.29 6.957 6.957 0 0 1 7-7 7.022 7.022 0 0 1 3.677 1.024 41.479 41.479 0 0 1 25.823-9.024 41.547 41.547 0 0 1 41.5 41.5 41.075 41.075 0 0 1-11.891 29.051A7.032 7.032 0 0 1 1157 602a6.957 6.957 0 0 1-7 7 6.976 6.976 0 0 1-5.181-2.266 41.516 41.516 0 0 1-18.319 4.267 41.547 41.547 0 0 1-41.5-41.5zm3 0a38.544 38.544 0 0 0 38.5 38.5 38.534 38.534 0 0 0 16.822-3.874 7.107 7.107 0 0 1-.322-2.128 6.957 6.957 0 0 1 7-7 7 7 0 0 1 4.107 1.31A38.115 38.115 0 0 0 1165 569.501a38.346 38.346 0 0 0-9.722-25.549l-6.966 7.224a28.373 28.373 0 0 1 6.688 18.325 28.533 28.533 0 0 1-28.5 28.5 28.635 28.635 0 0 1-27.516-21.072 6.95 6.95 0 0 1-5.984-6.928 6.95 6.95 0 0 1 5.721-6.887 28.418 28.418 0 0 1 27.779-22.113 28.4 28.4 0 0 1 19.782 8l6.938-7.195a38.374 38.374 0 0 0-26.72-10.805 38.473 38.473 0 0 0-23.636 8.147 7.018 7.018 0 0 1 1.136 3.853 6.958 6.958 0 0 1-7 7 7.041 7.041 0 0 1-3.209-.764 38.2 38.2 0 0 0-5.791 20.264zm58 32.5a4.012 4.012 0 0 0 4 4 4.012 4.012 0 0 0 4-4 4.012 4.012 0 0 0-4-4 4.012 4.012 0 0 0-4 4zm-44.223-38.777a6.95 6.95 0 0 1 5.224 6.778 6.95 6.95 0 0 1-4.971 6.707 25.353 25.353 0 0 0 24.47 18.292 25.53 25.53 0 0 0 25.5-25.5 25.382 25.382 0 0 0-5.782-16.152l-7.283 7.553a14.946 14.946 0 0 1 3.064 9.1 14.979 14.979 0 0 1-15 15 14.979 14.979 0 0 1-15-15 14.979 14.979 0 0 1 15-15 14.95 14.95 0 0 1 9.907 3.726l7.295-7.565a25.416 25.416 0 0 0-17.701-7.162 25.511 25.511 0 0 0-24.724 19.222zm13.224 6.777a12.035 12.035 0 0 0 12 12 12.035 12.035 0 0 0 12-12 11.914 11.914 0 0 0-2.192-6.893l-7.708 7.993a2.1 2.1 0 0 1-1.1.4 1.161 1.161 0 0 1-1-.4 1.452 1.452 0 0 1 0-2.1l7.806-8.1a11.942 11.942 0 0 0-7.806-2.9 12.035 12.035 0 0 0-12.001 12zm-19 0a4.012 4.012 0 0 0 4 4 4.012 4.012 0 0 0 4-4 4.012 4.012 0 0 0-4-4 4.012 4.012 0 0 0-4.001 4zm-3-27a4.012 4.012 0 0 0 4 4 4.012 4.012 0 0 0 4-4 4.012 4.012 0 0 0-4-4 4.012 4.012 0 0 0-4.001 4z"/>
    </symbol>

    <symbol id="symbol-infographics-1" viewBox="1006 906 100 100">
        <path d="M1054.75 1006a50.016 50.016 0 0 1 0-100v22.9a27.792 27.792 0 0 0 0 55.456zm2.5-100a50.016 50.016 0 0 1 0 100v-21.591a27.791 27.791 0 0 0 0-55.567V906z"/>
    </symbol>

    <symbol id="symbol-infographics-2" viewBox="1047 970 100 100">
        <path d="M1095.688 1016.904c9.666 0 13.459 4.024 13.459 9.759 0 5.6-3.977 10.083-12.256 10.083-4.579 0-9.111-1.48-11.886-3.931l2.127-3.654a14.544 14.544 0 0 0 9.713 3.469c4.9 0 7.677-2.266 7.677-5.781 0-3.654-2.312-5.92-9.805-5.92h-7.358l1.711-16.928h18.269v4.024h-14.384l-.879 8.88z"/>
        <path d="M1097 1070a50 50 0 1 1 50-50 50 50 0 0 1-50 50zm0-3.75a46.25 46.25 0 1 0-46.25-46.25 46.25 46.25 0 0 0 46.25 46.25z"/>
    </symbol>

    <symbol id="symbol-infographics-3" viewBox="0 0 100 100">
        <path d="M-1030.5-933.5h11.9v32.4h-4.6v-28.4h-7.3v-4zm18.1 0h24.4v3.1l-13.1 29.2h-4.9l12.8-28.4h-14.8v5.8h-4.4v-9.7z" transform="translate(1059 967)"/>
        <path d="M-977-867h-64c-9.9 0-18-8.1-18-18v-64c0-9.9 8.1-18 18-18h64c9.9 0 18 8.1 18 18v64c0 9.9-8.1 18-18 18zm-64-96c-7.7 0-14 6.3-14 14v64c0 7.7 6.3 14 14 14h64c7.7 0 14-6.3 14-14v-64c0-7.7-6.3-14-14-14h-64z" transform="translate(1059 967)"/>
    </symbol>

    <symbol id="symbol-certificate" viewBox="1289 791 82 77.2">
        <path d="M1304.9 868.199a1.33 1.33 0 0 1-.234-.021 2.317 2.317 0 0 1-1.167-.679 2.792 2.792 0 0 1-.321-.552 1.929 1.929 0 0 1-.178-.748v-8.6h-8a6.018 6.018 0 0 1-6-6v-54.6a6.018 6.018 0 0 1 6-6h70a6.018 6.018 0 0 1 6 6v42.6a18.053 18.053 0 0 1-18 18h-35v8.3a2.006 2.006 0 0 1-2 2 1.976 1.976 0 0 1-1.4-.6l-2.4-2.3a2 2 0 0 0-2.7-.1l-3.1 2.8a2.385 2.385 0 0 1-1.4.5zm1.1-13.6v9.3l1.5-1.3a4.961 4.961 0 0 1 4.122-1.182 4.921 4.921 0 0 1 2.678 1.383l.7.7v-18.909a10.467 10.467 0 0 1-4.5 1.01 10.46 10.46 0 0 1-4.5-1.011v10.009zm47 0a14.981 14.981 0 0 0 15-15v-2h-14a2.946 2.946 0 0 0-3 3v14zm-5 0v-14a6.018 6.018 0 0 1 6-6h14v-37.6a2.947 2.947 0 0 0-3-3h-70a2.947 2.947 0 0 0-3 3v54.6a2.947 2.947 0 0 0 3 3h8v-12.1a10.641 10.641 0 0 1-3-7.3v-.05-.049a10.5 10.5 0 0 1 10.5-10.5 10.5 10.5 0 0 1 10.5 10.5v.388a.014.014 0 0 1 0 .006v.062a10.467 10.467 0 0 1-3 6.893v12.15zm-45-19.5v.049a7.555 7.555 0 0 0 7.5 7.45 7.555 7.555 0 0 0 7.5-7.447v-.053a7.554 7.554 0 0 0-7.5-7.5 7.553 7.553 0 0 0-7.5 7.501zm2.5-13.5a1.538 1.538 0 0 1-1.5-1.5 1.538 1.538 0 0 1 1.5-1.5h50a1.537 1.537 0 0 1 1.5 1.5 1.537 1.537 0 0 1-1.5 1.5zm0-6a1.538 1.538 0 0 1-1.5-1.5 1.538 1.538 0 0 1 1.5-1.5h50a1.537 1.537 0 0 1 1.5 1.5 1.537 1.537 0 0 1-1.5 1.5zm14-11a1.538 1.538 0 0 1-1.5-1.5 1.538 1.538 0 0 1 1.5-1.5h21a1.538 1.538 0 0 1 1.5 1.5 1.538 1.538 0 0 1-1.5 1.5z"/>
    </symbol>

    <symbol id="symbol-walls" viewBox="1310 800 95 88.95">
        <path d="M1357.4 888.75l-.3-.3-19.3-10.4a1.56 1.56 0 0 1-.8-1.3v-23.8l-9-4.9v19.845l4.8-2.545a1.488 1.488 0 0 1 2 .6 1.488 1.488 0 0 1-.6 2l-6.6 3.5a2.017 2.017 0 0 1-.138.062 1.763 1.763 0 0 1-.162.138 1.364 1.364 0 0 1-1.5 0l-.1-.1-14.9-8a1.56 1.56 0 0 1-.8-1.3v-35.8a1.71 1.71 0 0 1 .7-1.3 1.6 1.6 0 0 1 .46-.191l46.74-24.809a1.711 1.711 0 0 1 1.4 0l44.9 24.1a1.516 1.516 0 0 1 .727 1.7 1.7 1.7 0 0 1 .073.5v35.8a1.56 1.56 0 0 1-.8 1.3l-45.2 25.2a2.351 2.351 0 0 1-.8.2 2.351 2.351 0 0 1-.8-.2zm2.3-36.2v32.3l42.3-23.6v-32.2zm-32.5-8.4l12 6.6a1.559 1.559 0 0 1 .8 1.3v23.8l16.7 9v-32.4l-43.7-23.5v32.4l12 6.5v-22.4a1.712 1.712 0 0 1 .7-1.3 1.449 1.449 0 0 1 .75-.225 1.449 1.449 0 0 1 .75.225zm31.1 5.8l42.945-23.934L1360 803.9v28.156a1.363 1.363 0 0 1 .2.094l9 5a1.488 1.488 0 0 1 .6 2 1.561 1.561 0 0 1-1.3.8 1.842 1.842 0 0 1-.7-.2l-9-5a1.538 1.538 0 0 1-.2-.136l-9.4 5.135a1.837 1.837 0 0 1-.7.2 1.562 1.562 0 0 1-1.3-.8 1.489 1.489 0 0 1 .6-2l9.2-5.1v-28.052l-42.366 22.461zm18.4 16.8a1.455 1.455 0 0 1-.7-1.3v-12.6a1.34 1.34 0 0 1 .8-1.3l12-6.4a1.952 1.952 0 0 1 1.5 0 1.457 1.457 0 0 1 .7 1.3v12.6a1.34 1.34 0 0 1-.8 1.3l-12 6.4a1.846 1.846 0 0 1-.7.2 2.331 2.331 0 0 1-.8-.2zm2.3-13v9.2l9-4.8v-9.2z"/>
    </symbol>

    <symbol id="symbol-settlement" viewBox="1390.001 821.999 95.6 78.625">
        <path d="M1464.3 900.425a.215.215 0 0 1-.2-.2l-19.3-10.7a1.561 1.561 0 0 1-.8-1.3v-15.5a1.707 1.707 0 0 1 .7-1.3 1.775 1.775 0 0 1 .292-.141c.034-.02.07-.04.107-.058l19.2-11a1.37 1.37 0 0 1 1.5 0l18.7 10.7a1.552 1.552 0 0 1 .624.664 1.487 1.487 0 0 1 .477 1.136v15.399a1.56 1.56 0 0 1-.8 1.3l-19 10.9a.775.775 0 0 1-.7.3 2.322 2.322 0 0 1-.8-.2zm2.3-15.9v12l16-9.2v-12zm-13-2.7l4.6 2.5a1.56 1.56 0 0 1 .8 1.3v8.351l4.6 2.548v-12.1l-16.6-9.2v12.1l4.4 2.439v-6.638a1.707 1.707 0 0 1 .7-1.3 1.448 1.448 0 0 1 .75-.225 1.448 1.448 0 0 1 .75.225zm.8 9.6l1.6.886v-5.786l-1.6-.9zm-5.905-18.727l16.605 9.226 16.309-9.359-16.309-9.24zm-38.195 27.727a.214.214 0 0 1-.2-.2l-19.3-10.7a1.559 1.559 0 0 1-.8-1.3v-15.5a1.705 1.705 0 0 1 .7-1.3 1.775 1.775 0 0 1 .292-.141l.107-.058 19.2-11a1.37 1.37 0 0 1 1.5 0l18.7 10.7a1.54 1.54 0 0 1 .624.664 1.487 1.487 0 0 1 .477 1.136v15.399a1.56 1.56 0 0 1-.8 1.3l-19 10.9a.778.778 0 0 1-.7.3 2.311 2.311 0 0 1-.8-.2zm2.3-15.9v12l16-9.2v-12zm-13-2.7l4.6 2.5a1.565 1.565 0 0 1 .8 1.3v8.351l4.6 2.548v-12.1l-16.6-9.2v12.1l4.4 2.439v-6.638a1.709 1.709 0 0 1 .7-1.3 1.442 1.442 0 0 1 .749-.225 1.45 1.45 0 0 1 .751.225zm.8 9.6l1.6.886v-5.786l-1.6-.9zm-5.907-18.727l16.605 9.226 16.311-9.359-16.309-9.24zm42.807-10.273a.214.214 0 0 1-.2-.2l-19.3-10.7a1.561 1.561 0 0 1-.8-1.3v-15.5a1.711 1.711 0 0 1 .7-1.3 1.63 1.63 0 0 1 .292-.141l.109-.06 19.2-11a1.363 1.363 0 0 1 1.5 0l18.7 10.7a1.553 1.553 0 0 1 .624.664 1.487 1.487 0 0 1 .475 1.136v15.401a1.555 1.555 0 0 1-.8 1.3l-19 10.9a.781.781 0 0 1-.7.3 2.367 2.367 0 0 1-.8-.2zm2.3-15.9v12l16-9.2v-12zm-13-2.7l4.6 2.5a1.562 1.562 0 0 1 .8 1.3v8.351l4.6 2.55v-12.1l-16.6-9.2v12.1l4.4 2.439v-6.64a1.707 1.707 0 0 1 .7-1.3 1.439 1.439 0 0 1 .749-.225 1.446 1.446 0 0 1 .751.225zm.8 9.6l1.6.886v-5.786l-1.6-.9zm-5.907-18.727l16.605 9.226 16.311-9.359-16.309-9.24z"/>
    </symbol>

    <symbol id="symbol-cloud" viewBox="1176 359 18 12">
        <path d="M1180.5 371a4.5 4.5 0 0 1-4.5-4.5 4.5 4.5 0 0 1 4.013-4.47A5.62 5.62 0 0 1 1185 359a5.616 5.616 0 0 1 5.513 4.53 3.731 3.731 0 0 1 3.487 3.72 3.751 3.751 0 0 1-3.749 3.75zm4.5-1.5l3.75-3.749h-2.25v-3h-3v3h-2.25z"/>
    </symbol>

    <symbol id="symbol-circle-exclamation" viewBox="1367 223 30 30">
        <path d="M1380.5 242.5h3v3h-3zm0-12h3v9h-3zm1.485-7.5A15 15 0 1 0 1397 238a14.993 14.993 0 0 0-15.015-15zm.015 27a12 12 0 1 1 12-12 12 12 0 0 1-12 12z"/>
    </symbol>

    <symbol id="symbol-circle-check" viewBox="1357 240 30 30">
        <path d="M1378.885 248.37l-9.885 9.885-5.385-5.37L1361.5 255l7.5 7.5 12-12zM1372 240a15 15 0 1 0 15 15 15.005 15.005 0 0 0-15-15zm0 27a12 12 0 1 1 12-12 12 12 0 0 1-12 12z"/>
    </symbol>

    <symbol id="symbol-arrow-prev" viewBox="0 0 24 24">
        <path d="M20 11H7.83l5.59-5.59L12 4l-8 8 8 8 1.41-1.41L7.83 13H20v-2z"/>
    </symbol>

    <symbol id="symbol-arrow-next" viewBox="0 0 24 24">
        <path d="M12 4l-1.41 1.41L16.17 11H4v2h12.17l-5.58 5.59L12 20l8-8z"/>
    </symbol>

</svg>
