<svg viewBox="0 0 137 47">
    <g fill-rule="nonzero" fill="none">
        <path
            d="M1.09 23.573V6.651h.676v4.172h.067C2.171 9.489 2.846 8.387 3.86 7.54a5.315 5.315 0 0 1 3.512-1.27c1.374 0 2.5.338 3.423 1.037.923.7 1.508 1.652 1.779 2.902h.067a5.167 5.167 0 0 1 2.027-2.838c1.013-.72 2.184-1.08 3.49-1.08 1.013 0 1.891.148 2.612.444.72.297 1.305.72 1.71 1.25.406.53.721 1.186.901 1.927.203.763.293 1.61.293 2.563v11.12H23V12.496c0-1.186-.135-2.181-.428-3.007-.293-.805-.788-1.44-1.509-1.885-.72-.445-1.666-.678-2.904-.678-1.622 0-2.95.572-3.94 1.737-.992 1.165-1.51 2.562-1.532 4.193v10.717h-.675V12.73c0-1.821-.338-3.24-.991-4.257-.676-1.038-1.892-1.546-3.67-1.546-.833 0-1.576.19-2.275.55a5.62 5.62 0 0 0-1.8 1.568 7.805 7.805 0 0 0-1.15 2.266A8.767 8.767 0 0 0 1.722 14v9.573h-.63zM67.626 11.65h-.675c0-1.102-.225-1.992-.698-2.69a4.07 4.07 0 0 0-1.959-1.547c-.833-.318-1.824-.487-2.972-.487-2.05 0-3.445.424-4.166 1.25-.72.826-1.058 1.61-1.058 2.35 0 1.483.653 2.457 1.936 2.966.383.127.721.233 1.014.317.292.085.63.191 1.013.297.383.106.743.19 1.08.275.338.085.789.19 1.33.34 1.215.317 2.206.592 2.949.889.743.275 1.373.72 1.869 1.313.518.593.765 1.377.765 2.372 0 1.06-.292 1.949-.9 2.648-.608.72-1.396 1.228-2.342 1.546a9.487 9.487 0 0 1-3.04.487c-1.53 0-2.837-.233-3.873-.678-1.035-.445-1.824-1.122-2.364-2.054-.54-.932-.81-2.076-.81-3.474h.675c0 1.843.54 3.22 1.644 4.151 1.103.932 2.68 1.398 4.728 1.398.923 0 1.824-.127 2.68-.423a4.951 4.951 0 0 0 2.116-1.313c.563-.615.833-1.356.833-2.246 0-.72-.157-1.313-.473-1.779a3.376 3.376 0 0 0-1.283-1.122 8.707 8.707 0 0 0-1.779-.678c-.63-.17-1.463-.381-2.454-.614a89.21 89.21 0 0 1-2.544-.678c-.45-.127-.901-.296-1.351-.487-.721-.318-1.261-.741-1.6-1.292-.337-.55-.494-1.292-.494-2.182 0-.699.202-1.376.607-2.012.406-.635 1.036-1.165 1.914-1.588.879-.424 2.004-.636 3.378-.636 2.004 0 3.557.445 4.66 1.335 1.104.868 1.644 2.224 1.644 4.045M83.298 11.65h-.675c0-1.102-.226-1.992-.698-2.69a4.07 4.07 0 0 0-1.96-1.547c-.833-.318-1.823-.487-2.972-.487-2.071 0-3.445.424-4.165 1.25-.72.826-1.058 1.61-1.058 2.35 0 1.483.653 2.457 1.936 2.966.383.127.72.233 1.013.317.293.085.63.191 1.013.297.383.106.743.19 1.081.275.338.085.788.19 1.329.34 1.216.317 2.206.592 2.95.889.742.275 1.373.72 1.868 1.313.518.593.766 1.377.766 2.372 0 1.06-.293 1.949-.9 2.648-.609.72-1.397 1.228-2.343 1.546a9.487 9.487 0 0 1-3.04.487c-1.553 0-2.836-.233-3.872-.678-1.036-.445-1.824-1.122-2.364-2.054-.54-.932-.811-2.076-.811-3.474h.676c0 1.843.54 3.22 1.643 4.151 1.104.932 2.68 1.398 4.729 1.398.923 0 1.824-.127 2.68-.423a4.951 4.951 0 0 0 2.116-1.313c.563-.615.833-1.356.833-2.246 0-.72-.158-1.313-.473-1.779a3.376 3.376 0 0 0-1.283-1.122 8.707 8.707 0 0 0-1.78-.678c-.63-.17-1.463-.381-2.454-.614a89.21 89.21 0 0 1-2.544-.678c-.45-.127-.9-.296-1.35-.487-.721-.318-1.262-.741-1.6-1.292-.337-.55-.495-1.292-.495-2.182 0-.699.203-1.376.608-2.012.405-.635 1.036-1.165 1.914-1.588.878-.424 2.004-.636 3.377-.636 2.004 0 3.558.445 4.661 1.335 1.081.868 1.644 2.224 1.644 4.045M86.585 14.572h13.87c0-1.038-.134-2.033-.427-2.944-.293-.91-.72-1.737-1.329-2.457-.608-.72-1.328-1.292-2.184-1.673-.855-.381-1.824-.572-2.927-.572-1.26 0-2.41.318-3.445.932-1.036.614-1.869 1.525-2.5 2.669-.607 1.164-.968 2.52-1.058 4.045m14.569.657H86.585c.023 2.456.608 4.426 1.712 5.888 1.103 1.461 2.837 2.202 5.156 2.202 1.824 0 3.355-.487 4.57-1.461 1.217-.974 1.96-2.372 2.23-4.151h.675c-.225 1.906-1.035 3.43-2.386 4.574-1.351 1.144-3.04 1.695-5.021 1.695-1.734 0-3.153-.381-4.301-1.123a6.775 6.775 0 0 1-2.522-3.134c-.54-1.335-.81-2.86-.81-4.618 0-1.779.36-3.346 1.058-4.702.698-1.355 1.643-2.372 2.814-3.07 1.171-.7 2.41-1.06 3.76-1.06 1.261 0 2.365.233 3.355.7.969.465 1.78 1.1 2.387 1.884.63.805 1.081 1.737 1.396 2.86.338 1.08.496 2.266.496 3.516M104.531 15.144c0 1.482.27 2.86.833 4.109.563 1.25 1.374 2.245 2.432 2.965 1.058.741 2.32 1.101 3.76 1.101 2.14 0 3.806-.783 4.976-2.35 1.171-1.568 1.757-3.517 1.757-5.825 0-1.398-.248-2.711-.72-3.96a7.057 7.057 0 0 0-2.23-3.072c-1.013-.784-2.252-1.186-3.76-1.186-1.419 0-2.657.318-3.715.974-1.059.657-1.892 1.61-2.455 2.838-.585 1.25-.878 2.711-.878 4.406zm0-15.102v11.332h.068c.225-.784.54-1.483.923-2.118.405-.615.9-1.165 1.486-1.61.585-.445 1.26-.784 2.049-1.038.788-.254 1.621-.36 2.522-.36 1.17 0 2.229.233 3.152.7a6.727 6.727 0 0 1 2.342 1.948 8.703 8.703 0 0 1 1.44 2.859c.316 1.059.474 2.203.474 3.389 0 1.313-.158 2.478-.496 3.537a8.535 8.535 0 0 1-1.463 2.774 6.41 6.41 0 0 1-2.364 1.864c-.946.445-1.96.657-3.063.657-1.148 0-2.184-.212-3.152-.657-.946-.444-1.756-1.038-2.387-1.8a7.113 7.113 0 0 1-1.418-2.648h-.068v4.724h-.675V.085h.63V.042zM121.801 15.101c0 1.462.27 2.817.833 4.067a6.925 6.925 0 0 0 2.455 3.008c1.08.762 2.386 1.122 3.873 1.122 1.486 0 2.77-.381 3.85-1.122a7.265 7.265 0 0 0 2.477-3.008c.563-1.25.833-2.605.833-4.067 0-1.1-.158-2.139-.473-3.113a8.62 8.62 0 0 0-1.374-2.605 6.642 6.642 0 0 0-2.229-1.8c-.878-.445-1.914-.657-3.062-.657s-2.161.212-3.04.656c-.878.445-1.643 1.038-2.251 1.822a8.65 8.65 0 0 0-1.396 2.647c-.36.996-.496 2.013-.496 3.05m-.698 0c0-1.143.18-2.245.518-3.346.36-1.101.856-2.055 1.531-2.86a7.124 7.124 0 0 1 2.455-1.927c.968-.466 2.094-.699 3.355-.699 1.62 0 3.04.403 4.21 1.208 1.194.804 2.072 1.885 2.702 3.24.608 1.356.923 2.817.923 4.384 0 1.589-.315 3.072-.923 4.406-.608 1.355-1.508 2.436-2.702 3.24-1.193.805-2.612 1.229-4.255 1.229-1.194 0-2.297-.233-3.288-.699a7.014 7.014 0 0 1-2.522-1.991 8.78 8.78 0 0 1-1.53-2.88 12.362 12.362 0 0 1-.474-3.305M28.29 19.443c0-.444.045-.89.113-1.334a9.71 9.71 0 0 1 .968-3.05c1.17-2.266 2.927-3.897 5.359-4.829.45-.17.923-.297 1.396-.402h.067c-.112.275-.225.53-.337.783-.293.805-.496 1.61-.586 2.457a10.81 10.81 0 0 0 .09 3.071c.45 2.478 1.644 4.575 3.603 6.227a10.036 10.036 0 0 0 4.66 2.224c.902.17 1.802.212 2.703.148h.067c-.09.17-.202.318-.315.488-1.126 1.588-2.59 2.795-4.458 3.537a9.47 9.47 0 0 1-2.545.614c-.157.021-.315.021-.45.042-.022 0-.045-.021-.067.021h-.068c-.022-.02-.067 0-.09 0h-.405c-.045-.02-.09 0-.158 0H37.5c-.135-.02-.27-.02-.405-.02a6.625 6.625 0 0 1-1.103-.17 9.575 9.575 0 0 1-2.274-.784 10.242 10.242 0 0 1-1.937-1.25 8.927 8.927 0 0 1-.81-.762 9.99 9.99 0 0 1-.879-1.038 8.846 8.846 0 0 1-.9-1.525 10.93 10.93 0 0 1-.743-2.075c-.09-.382-.158-.784-.203-1.165-.022-.17-.022-.318-.045-.488 0-.169-.023-.338 0-.529.09-.064.09-.127.09-.19"
            fill="#000"/>
        <path
            d="M51.91 10.294c0 .338-.023.698-.045 1.037-.113 1.038-.36 2.055-.788 3.008-.99 2.224-2.612 3.918-4.864 4.998a9.307 9.307 0 0 1-2.139.7h-.045c0-.043.023-.064.023-.085.427-.932.698-1.885.833-2.88.09-.636.135-1.272.09-1.907-.09-2.287-.856-4.363-2.297-6.185-1.306-1.63-2.95-2.774-4.976-3.41a9.452 9.452 0 0 0-2.432-.444 13.429 13.429 0 0 0-1.306 0h-.18a9.854 9.854 0 0 1 3.288-3.283A9.88 9.88 0 0 1 41.575.445c.022-.021.067 0 .09 0h.112c.068 0 .113.021.18 0h.338c.045.021.113 0 .158 0h.18c.518 0 1.013.085 1.531.19.81.17 1.576.445 2.32.805a10.632 10.632 0 0 1 2.431 1.695c.315.296.608.614.878.953.473.593.856 1.228 1.194 1.885.338.678.585 1.398.743 2.139.09.36.135.741.18 1.101.022.17.045.34.045.509-.045.211-.023.402-.045.572"
            fill="#EA5C37"/>
        <path d="M28.338 20.05l-.07-.607h.07v.607" fill="#EFEFEF"/>
        <path d="M42.316.445c-.14.135-.35.067-.561.067h.56V.445z" fill="#EE7D5F"/>
        <path d="M42.786.512c-.14 0-.35.068-.49-.067l.49.067c0-.067 0-.067 0 0" fill="#EF8367"/>
        <path d="M37.918 29.43c.14 0 .35-.067.49.068l-.49-.067c-.07.067-.07.067 0 0-.07 0 0 0 0 0" fill="#1B1D1D"/>
        <path d="M38.22 29.487c.14-.068.28-.068.42-.068h-.42v.068z" fill="#29292B"/>
        <path d="M42.015.445s0 .067 0 0c-.14.067-.21.067-.35.067V.445h.35z" fill="#F4A894"/>
        <path d="M42.871.445s0 .067 0 0c-.07.067-.21.067-.35.067h.35V.445z" fill="#F9CFC2"/>
        <path d="M38.12 29.42c0 .067 0 .067 0 0l-.35.067c.07-.068.21 0 .35-.068" fill="#383B3B"/>
        <path d="M41.855.445s0 .067 0 0c-.07.067-.21.067-.28.067V.445h.28z" fill="#FAD4C9"/>
        <path d="M42.733.445s0 .067 0 0c-.07.067-.21.067-.28.067V.445h.28z" fill="#F4A591"/>
        <path d="M38.355 29.487c.07-.068.21-.068.28-.068h-.28v.068z" fill="#585858"/>
        <path d="M38.445 29.481c.07 0 .21-.134.28 0h-.28z" fill="#868689"/>
        <g fill="#1D1D1B">
            <path
                d="M.113 45.26c.9-.02 1.44-.4 1.777-2.72l.45-3.1H6.3v5.78h.63v1.64h-.607V45.7H.72v1.16H.113v-1.6zm1.192-.04h4.41v-5.3H2.902l-.382 2.66c-.248 1.6-.653 2.32-1.215 2.64zM10.418 45.72v-6.26h.607v5.32l4.41-5.32h.607v6.26h-.607v-5.38l-4.433 5.38zM19.485 44.78l.405-.32c.405.5 1.192.88 2.137.88 1.17 0 1.913-.5 1.913-1.34 0-.9-.855-1.26-1.935-1.26h-1.462v-.48h1.462c.968 0 1.8-.36 1.8-1.2 0-.78-.832-1.22-1.8-1.22-.855 0-1.485.28-2.025.8l-.36-.34c.517-.54 1.35-.94 2.43-.94 1.26 0 2.407.6 2.407 1.66 0 .96-.9 1.38-1.507 1.46.608.06 1.62.52 1.62 1.56s-.968 1.8-2.52 1.8c-1.238-.02-2.137-.5-2.565-1.06zM33.322 45.72l-.697-1.54H28.89l-.698 1.54h-.697l2.88-6.26h.742l2.88 6.26h-.675zm-2.565-5.7l-1.665 3.66h3.33l-1.664-3.66zM37.35 45.72v-6.26h.608v5.32l4.41-5.32h.607v6.26h-.608v-5.38l-4.432 5.38h-.585zm2.835-6.66c-.742 0-1.418-.32-1.867-.82l.315-.24c.36.44.9.7 1.552.7s1.192-.28 1.552-.7l.293.24c-.428.5-1.102.82-1.845.82zM51.998 45.72v-2.98H47.52v2.98h-.608v-6.26h.608v2.8h4.477v-2.8h.608v6.26zM61.763 45.72v-6.26h.607v5.32l4.41-5.32h.608v6.26h-.608v-5.38l-4.433 5.38zM76.41 45.72v-2.98h-4.477v2.98h-.608v-6.26h.608v2.8h4.477v-2.8h.608v6.26zM82.755 45.72v-5.78H80.46v-.48h5.22v.48h-2.295v5.78zM89.1 45.72v-6.26h4.478v.48h-3.87v2.32h3.802v.48h-3.803v2.48h3.87v.48H89.1zM97.11 45.72v-6.26h2.655c1.35 0 2.115.84 2.115 1.84s-.787 1.84-2.115 1.84h-2.047v2.6h-.608v-.02zm4.14-4.44c0-.78-.63-1.34-1.552-1.34h-1.98v2.68h1.98c.922 0 1.552-.56 1.552-1.34zM105.93 39.44v2.6h2.047c1.35 0 2.115.84 2.115 1.84 0 .98-.764 1.84-2.114 1.84h-2.655v-6.26h.607v-.02zm0 3.1v2.68h1.98c.922 0 1.553-.56 1.553-1.34s-.63-1.34-1.553-1.34h-1.98zM113.535 45.72v-6.26h4.478v.48h-3.87v2.32h3.802v.48h-3.802v2.48h3.87v.48h-4.478zM121.545 45.72v-6.26h2.655c1.35 0 2.115.84 2.115 1.84s-.787 1.84-2.115 1.84h-2.047v2.6h-.608v-.02zm4.14-4.44c0-.78-.63-1.34-1.553-1.34h-1.98v2.68h1.98c.923 0 1.553-.56 1.553-1.34zM134.303 45.72l-.698-1.54h-3.735l-.697 1.54h-.698l2.88-6.26h.743l2.88 6.26h-.675zm-2.565-5.7l-1.666 3.66h3.33l-1.664-3.66z"/>
        </g>
    </g>
</svg>
